SplineFontDB: 3.2
FontName: SoftCode
FullName: SoftCode Regular
FamilyName: SoftCode
Weight: Book
Copyright: (c) 2013-2019 Fabio Y. Goto
UComments: "2013-6-22: Created."
Version: 0.0.1
ItalicAngle: 0
UnderlinePosition: -128
UnderlineWidth: 64
Ascent: 832
Descent: 192
InvalidEm: 0
LayerCount: 2
Layer: 0 0 "Back" 1
Layer: 1 0 "Fore" 0
XUID: [1021 435 22966 28455]
FSType: 0
OS2Version: 0
OS2_WeightWidthSlopeOnly: 0
OS2_UseTypoMetrics: 1
CreationTime: 1371875741
ModificationTime: 1583858658
PfmFamily: 17
TTFWeight: 400
TTFWidth: 5
LineGap: 92
VLineGap: 92
OS2TypoAscent: 0
OS2TypoAOffset: 1
OS2TypoDescent: 0
OS2TypoDOffset: 1
OS2TypoLinegap: 92
OS2WinAscent: 0
OS2WinAOffset: 1
OS2WinDescent: 0
OS2WinDOffset: 1
HheadAscent: 0
HheadAOffset: 1
HheadDescent: 0
HheadDOffset: 1
OS2Vendor: 'PfEd'
MarkAttachClasses: 1
DEI: 91125
LangName: 1033
GaspTable: 11 7 3 8 2 9 3 10 2 11 3 12 1 13 3 14 2 15 3 16 2 65535 3 0
Encoding: ISO8859-1
Compacted: 1
UnicodeInterp: none
NameList: Adobe Glyph List
DisplaySize: -24
AntiAlias: 1
FitToEm: 1
WinInfo: 0 30 19
BeginPrivate: 0
EndPrivate
TeXData: 1 0 0 393216 196608 131072 458752 1048576 131072 783286 444596 497025 792723 393216 433062 380633 303038 157286 324010 404750 52429 2506097 1059062 262144
BeginChars: 276 208

StartChar: A
Encoding: 65 65 0
Width: 384
VWidth: 0
Flags: W
HStem: 0 21G<0 64 256 320> 128 64<82 238> 620 20G<112 208>
VStem: 0 64<0 125.753> 256 64<0 125.753>
LayerCount: 2
Fore
SplineSet
128 640 m 1
 192 640 l 1
 224 576 320 256 320 0 c 1
 256 0 l 1
 256 36 253 80 247 128 c 1
 73 128 l 1
 67 80 64 36 64 0 c 1
 0 0 l 1
 0 256 96 576 128 640 c 1
160 547 m 1
 128 442 99 310 82 192 c 1
 238 192 l 1
 221 310 192 442 160 547 c 1
EndSplineSet
Validated: 1
EndChar

StartChar: B
Encoding: 66 66 1
Width: 384
VWidth: 0
Flags: W
HStem: 0 64<64 227.561> 320 64<64 229.788> 576 64<64 231.563>
VStem: 0 64<64 320 384 576> 264 64<98.5053 286.511 415.349 544.898>
LayerCount: 2
Fore
SplineSet
0 640 m 1
 64 640 l 1
 128 640 l 2
 248 640 328 592 328 480 c 0
 328 420 305 379 266 353 c 1
 305 326 328 277 328 192 c 0
 328 32 248 0 128 0 c 2
 64 0 l 1
 0 0 l 1
 0 640 l 1
64 576 m 1
 64 384 l 1
 128 384 l 2
 192 384 264 392 264 480 c 0
 264 568 192 576 128 576 c 2
 64 576 l 1
64 320 m 1
 64 64 l 1
 128 64 l 2
 200 64 264 64 264 192 c 0
 264 320 200 320 128 320 c 2
 64 320 l 1
EndSplineSet
Validated: 1
EndChar

StartChar: C
Encoding: 67 67 2
Width: 384
VWidth: 0
Flags: W
HStem: -8 72<100.381 219.938> 576 72<100.381 219.938>
VStem: -8 72<106.447 533.553> 245 65<89.2969 105.08 534.92 550.703>
LayerCount: 2
Fore
SplineSet
160 648 m 0
 247 648 289 607 310 539 c 1
 245 502 l 1
 234 550 210 576 160 576 c 0
 64 576 64 480 64 320 c 0
 64 160 64 64 160 64 c 0
 210 64 234 90 245 138 c 1
 310 101 l 1
 289 33 247 -8 160 -8 c 0
 0 -8 -8 128 -8 320 c 0
 -8 512 0 648 160 648 c 0
EndSplineSet
Validated: 1
EndChar

StartChar: I
Encoding: 73 73 3
Width: 384
VWidth: 0
Flags: W
LayerCount: 2
Fore
SplineSet
32 640 m 1
 288 640 l 1
 288 576 l 1
 192 576 l 1
 192 64 l 1
 288 64 l 1
 288 0 l 1
 32 0 l 1
 32 64 l 1
 128 64 l 1
 128 576 l 1
 32 576 l 1
 32 640 l 1
EndSplineSet
Validated: 1
EndChar

StartChar: D
Encoding: 68 68 4
Width: 384
VWidth: 0
Flags: W
HStem: 0 64<64 152.453> 576 64<64 149.349>
VStem: 0 64<64 576> 256 72<191.226 450.953>
LayerCount: 2
Fore
SplineSet
0 640 m 1
 64 640 l 2
 160 640 242 587 292 495 c 1
 314 449 328 391 328 320 c 0
 328 96 176 0 64 0 c 2
 0 0 l 1
 0 640 l 1
64 576 m 1
 64 64 l 1
 192 64 256 176 256 320 c 0
 256 464 192 576 64 576 c 1
EndSplineSet
Validated: 1
EndChar

StartChar: E
Encoding: 69 69 5
Width: 384
VWidth: 0
Flags: W
LayerCount: 2
Fore
SplineSet
0 640 m 1
 320 640 l 1
 320 576 l 1
 64 576 l 1
 64 384 l 1
 256 384 l 1
 256 320 l 1
 64 320 l 1
 64 64 l 1
 320 64 l 1
 320 0 l 1
 0 0 l 1
 0 640 l 1
EndSplineSet
Validated: 1
EndChar

StartChar: F
Encoding: 70 70 6
Width: 384
VWidth: 0
Flags: W
LayerCount: 2
Fore
SplineSet
0 640 m 1
 320 640 l 1
 320 576 l 1
 64 576 l 1
 64 384 l 1
 256 384 l 1
 256 320 l 1
 64 320 l 1
 64 0 l 1
 0 0 l 1
 0 640 l 1
EndSplineSet
Validated: 1
EndChar

StartChar: G
Encoding: 71 71 7
Width: 384
VWidth: 0
Flags: W
LayerCount: 2
Fore
SplineSet
191 -6 m 0x7c
 181 -7 171 -8 160 -8 c 0
 0 -8 -8 128 -8 320 c 0
 -8 512 0 648 160 648 c 0
 161 648 163 648 164 648 c 0
 166 648 167 648 168 648 c 0
 250 645 290 605 310 539 c 1
 245 502 l 1
 234 550 210 576 160 576 c 0
 64 576 64 480 64 320 c 0
 64 160 64 64 160 64 c 0xbc
 199 64 221 80 234 106 c 0
 239 115 243 126 245 138 c 0
 256 181 256 243 256 320 c 1
 213 320 171 320 128 320 c 1
 128 384 l 1
 320 384 l 1
 320 -0 l 1
 256 -0 l 1
 256 18 l 1
 239 5 217 -3 191 -6 c 0x7c
EndSplineSet
Validated: 1
EndChar

StartChar: H
Encoding: 72 72 8
Width: 384
VWidth: 0
Flags: W
LayerCount: 2
Fore
SplineSet
0 640 m 1
 64 640 l 1
 64 384 l 1
 256 384 l 1
 256 640 l 1
 320 640 l 1
 320 0 l 1
 256 0 l 1
 256 320 l 1
 64 320 l 1
 64 0 l 1
 0 0 l 1
 0 640 l 1
EndSplineSet
Validated: 1
EndChar

StartChar: e
Encoding: 101 101 9
Width: 384
VWidth: 0
Flags: W
HStem: -8 72<96.2265 225.051> 192 64<64 256> 384 72<96.2265 223.774>
VStem: -8 72<99.0119 192 256 348.988> 256 72<256 348.988>
CounterMasks: 1 e0
LayerCount: 2
Fore
SplineSet
160 456 m 0
 288 456 328 352 328 224 c 0
 328 213 328 202 327 192 c 1
 312 192 l 1
 256 192 l 1
 64 192 l 1
 66 124 77 64 160 64 c 0
 204 64 228 81 241 107 c 1
 307 90 l 1
 283 31 238 -8 160 -8 c 0
 32 -8 -8 96 -8 224 c 0
 -8 352 32 456 160 456 c 0
160 384 m 0
 77 384 66 324 64 256 c 1
 256 256 l 1
 254 324 243 384 160 384 c 0
EndSplineSet
Validated: 1
EndChar

StartChar: J
Encoding: 74 74 10
Width: 384
VWidth: 0
Flags: W
HStem: -8 72<99.9176 220.541> 620 20G<256 320>
VStem: 2 67<97.6973 150.926> 256 64<101.575 640>
LayerCount: 2
Fore
SplineSet
256 640 m 1
 320 640 l 1
 320 320 l 2
 320 144 320 -8 160 -8 c 0
 62 -8 20 48 2 149 c 1
 69 167 l 1
 78 101 101 64 160 64 c 0
 256 64 256 144 256 320 c 2
 256 640 l 1
EndSplineSet
Validated: 1
EndChar

StartChar: K
Encoding: 75 75 11
Width: 384
VWidth: 0
Flags: W
HStem: 0 21G<0 64 256 320> 620 20G<0 64 256 320>
VStem: 0 64<0 272 336 640> 256 64<0 226.609 531.215 640>
LayerCount: 2
Fore
SplineSet
0 640 m 1
 64 640 l 1
 64 336 l 1
 144 368 256 528 256 608 c 2
 256 640 l 1
 320 640 l 1
 320 608 l 2
 320 547 276 468 224 401 c 1
 292 326 320 151 320 32 c 2
 320 0 l 1
 256 0 l 1
 256 32 l 2
 256 120 243 276 178 350 c 1
 134 304 89 272 64 272 c 1
 64 0 l 1
 0 0 l 1
 0 640 l 1
EndSplineSet
Validated: 1
EndChar

StartChar: L
Encoding: 76 76 12
Width: 384
VWidth: 0
Flags: W
LayerCount: 2
Fore
SplineSet
0 0 m 1
 0 640 l 1
 64 640 l 1
 64 64 l 1
 320 64 l 1
 320 0 l 1
 0 0 l 1
EndSplineSet
Validated: 1
EndChar

StartChar: M
Encoding: 77 77 13
Width: 384
VWidth: 0
Flags: W
LayerCount: 2
Fore
SplineSet
0 640 m 1
 64 640 l 1
 160 432 l 1
 256 640 l 1
 320 640 l 1
 320 0 l 1
 256 0 l 1
 256 480 l 1
 160 288 l 1
 64 480 l 1
 64 0 l 1
 0 0 l 1
 0 640 l 1
EndSplineSet
Validated: 1
EndChar

StartChar: N
Encoding: 78 78 14
Width: 384
VWidth: 0
Flags: W
LayerCount: 2
Fore
SplineSet
0 640 m 1
 64 640 l 1
 256 320 l 1
 256 640 l 1
 320 640 l 1
 320 0 l 1
 256 0 l 1
 256 192 l 1
 64 512 l 1
 64 0 l 1
 0 0 l 1
 0 640 l 1
EndSplineSet
Validated: 1
EndChar

StartChar: O
Encoding: 79 79 15
Width: 384
VWidth: 0
Flags: W
LayerCount: 2
Fore
SplineSet
160 648 m 0
 320 648 328 512 328 320 c 0
 328 128 320 -8 160 -8 c 0
 0 -8 -8 128 -8 320 c 0
 -8 512 0 648 160 648 c 0
160 576 m 0
 64 576 64 480 64 320 c 0
 64 160 64 64 160 64 c 0
 256 64 256 160 256 320 c 0
 256 480 256 576 160 576 c 0
EndSplineSet
Validated: 1
EndChar

StartChar: P
Encoding: 80 80 16
Width: 384
VWidth: 0
Flags: W
HStem: 0 21G<0 64> 318 66<64 224.392> 576 64<64 227.043>
VStem: 0 64<0 320 384 576> 264 64<418.54 543.032>
LayerCount: 2
Fore
SplineSet
128 640 m 2
 200 640 328 624 328 480 c 0
 328 420 314 318 110 318 c 0
 95 318 80 319 64 320 c 1
 64 0 l 1
 0 0 l 1
 0 640 l 1
 128 640 l 2
100 576 m 0
 88 576 76 576 64 576 c 1
 64 384 l 1
 77 384 90 384 103 384 c 0
 186 384 264 390 264 480 c 0
 264 571 184 576 100 576 c 0
EndSplineSet
Validated: 1
EndChar

StartChar: Q
Encoding: 81 81 17
Width: 384
VWidth: 0
Flags: W
HStem: -128 64<254.068 320> 576 72<100.381 219.619>
VStem: -8 72<106.485 533.553> 128 64<74.5393 256> 256 72<105.715 533.553>
CounterMasks: 1 38
LayerCount: 2
Fore
SplineSet
160 648 m 0
 320 648 328 512 328 320 c 0
 328 156 322 33 221 0 c 1
 239 -39 270 -64 320 -64 c 1
 320 -128 l 1
 258 -128 195 -114 159 -8 c 1
 -0 -7 -8 128 -8 320 c 0
 -8 512 0 648 160 648 c 0
160 576 m 0
 64 576 64 480 64 320 c 0
 64 171 64 78 141 65 c 1
 133 115 128 178 128 256 c 1
 192 256 l 1
 192 191 192 126 201 72 c 1
 256 98 256 187 256 320 c 0
 256 480 256 576 160 576 c 0
EndSplineSet
Validated: 1
EndChar

StartChar: R
Encoding: 82 82 18
Width: 384
VWidth: 0
Flags: W
HStem: 0 21G<0 64 248.608 320> 320 64<64 168> 576 64<64 227.043>
VStem: 0 64<0 320 384 576> 264 64<417.214 543.032>
LayerCount: 2
Fore
SplineSet
0 640 m 1
 128 640 l 2
 200 640 328 624 328 480 c 0
 328 433 328 358 232 330 c 1
 320 0 l 1
 254 0 l 1
 168 319 l 1
 159 319 150 318 140 318 c 0
 127 318 112 319 96 320 c 0
 91 320 80 320 64 320 c 1
 64 0 l 1
 0 0 l 1
 0 640 l 1
100 576 m 0
 88 576 76 576 64 576 c 1
 64 384 l 1
 77 384 90 384 103 384 c 0
 186 384 264 390 264 480 c 0
 264 571 184 576 100 576 c 0
EndSplineSet
Validated: 1
EndChar

StartChar: S
Encoding: 83 83 19
Width: 384
VWidth: 0
Flags: W
LayerCount: 2
Fore
SplineSet
160 648 m 0
 229 648 286 611 312 554 c 1
 244 536 l 1
 229 563 201 576 160 576 c 0
 96 576 64 544 64 480 c 0
 64 416 96 384 160 384 c 0
 272 384 328 304 328 192 c 0
 328 64 256 -8 160 -8 c 0
 80 -8 17 42 -2 131 c 1
 67 150 l 1
 77 96 108 64 160 64 c 0
 224 64 256 112 256 192 c 0
 256 240 240 320 160 320 c 0
 64 320 -8 384 -8 480 c 0
 -8 576 64 648 160 648 c 0
EndSplineSet
Validated: 1
EndChar

StartChar: T
Encoding: 84 84 20
Width: 384
VWidth: 0
Flags: W
LayerCount: 2
Fore
SplineSet
0 640 m 1
 320 640 l 1
 320 576 l 1
 192 576 l 1
 192 0 l 1
 128 0 l 1
 128 576 l 1
 0 576 l 1
 0 640 l 1
EndSplineSet
Validated: 1
EndChar

StartChar: U
Encoding: 85 85 21
Width: 384
VWidth: 0
Flags: W
HStem: -8 72<101.334 218.666> 620 20G<0 64 256 320>
VStem: 0 64<106.855 640> 256 64<106.855 640>
LayerCount: 2
Fore
SplineSet
0 320 m 2
 0 640 l 1
 64 640 l 1
 64 320 l 2
 64 295 63 269 63 243 c 0
 63 151 73 64 160 64 c 0
 247 64 257 151 257 243 c 0
 257 269 256 295 256 320 c 2
 256 640 l 1
 320 640 l 1
 320 320 l 2
 320 128 320 -8 160 -8 c 0
 0 -8 0 128 0 320 c 2
EndSplineSet
Validated: 1
EndChar

StartChar: V
Encoding: 86 86 22
Width: 384
VWidth: 0
Flags: W
LayerCount: 2
Fore
SplineSet
0 640 m 1
 64 640 l 1
 64 576 l 2
 64 336 112 160 160 80 c 1
 208 160 256 336 256 576 c 2
 256 640 l 1
 320 640 l 1
 320 576 l 2
 320 336 256 80 192 0 c 1
 128 0 l 1
 64 80 0 336 0 576 c 2
 0 640 l 1
EndSplineSet
Validated: 1
EndChar

StartChar: W
Encoding: 87 87 23
Width: 384
VWidth: 0
Flags: W
HStem: 0 21G<64 128 192 256> 620 20G<0 64 256 320>
VStem: 0 64<220.863 640> 64 64<0 99.1852> 128 64<168.871 400> 192 64<0 99.1852> 256 64<220.863 640>
LayerCount: 2
Fore
SplineSet
0 640 m 1xe0
 64 640 l 1
 64 448 l 2
 64 277 81 193 97 135 c 1
 113 190 128 274 128 368 c 2
 128 400 l 1
 192 400 l 1
 192 368 l 2
 192 274 207 190 223 135 c 1
 239 193 256 277 256 448 c 2
 256 640 l 1
 320 640 l 1
 320 448 l 2xea
 320 160 256 64 256 0 c 1
 192 0 l 1
 192 48 176 76 160 132 c 1
 144 76 128 48 128 0 c 1
 64 0 l 1xd4
 64 64 0 160 0 448 c 2
 0 640 l 1xe0
EndSplineSet
Validated: 1
EndChar

StartChar: X
Encoding: 88 88 24
Width: 384
VWidth: 0
Flags: W
HStem: 0 21G<0 64 256 320> 620 20G<0 64 256 320>
VStem: 0 64<0 139.433 500.567 640> 256 64<0 139.433 500.567 640>
LayerCount: 2
Fore
SplineSet
0 640 m 1
 64 640 l 1
 64 576 l 2
 64 529 108 455 160 375 c 1
 212 455 256 529 256 576 c 2
 256 640 l 1
 320 640 l 1
 320 576 l 2
 320 513 259 416 196 320 c 1
 259 224 320 127 320 64 c 2
 320 0 l 1
 256 0 l 1
 256 64 l 2
 256 111 212 185 160 265 c 1
 108 185 64 111 64 64 c 2
 64 0 l 1
 0 0 l 1
 0 64 l 2
 0 127 61 224 124 320 c 1
 61 416 0 513 0 576 c 2
 0 640 l 1
EndSplineSet
Validated: 1
EndChar

StartChar: Y
Encoding: 89 89 25
Width: 384
VWidth: 0
Flags: W
HStem: 0 21G<128 192> 620 20G<0 64 256 320>
VStem: 0 64<483.823 640> 128 64<0 296.695> 256 64<483.823 640>
CounterMasks: 1 38
LayerCount: 2
Fore
SplineSet
0 640 m 1
 64 640 l 1
 64 576 l 2
 64 503 119 412 160 330 c 1
 201 412 256 503 256 576 c 2
 256 640 l 1
 320 640 l 1
 320 576 l 2
 320 480 224 320 192 256 c 1
 192 0 l 1
 128 0 l 1
 128 256 l 1
 96 320 0 480 0 576 c 2
 0 640 l 1
EndSplineSet
Validated: 1
EndChar

StartChar: Z
Encoding: 90 90 26
Width: 384
VWidth: 0
Flags: W
LayerCount: 2
Fore
SplineSet
0 640 m 1
 320 640 l 1
 320 576 l 1
 72 64 l 1
 320 64 l 1
 320 0 l 1
 0 0 l 1
 0 64 l 1
 248 576 l 1
 0 576 l 1
 0 640 l 1
EndSplineSet
Validated: 1
EndChar

StartChar: a
Encoding: 97 97 27
Width: 384
VWidth: 0
Flags: W
HStem: -8 72<76.2412 247.61> 0 21G<256 320> 200 64<80.0822 255.933> 384 72<84.6663 229.802>
VStem: -8 72<78.0558 182.37> 256 64<0 19 75.3049 216 266.472 354.75>
LayerCount: 2
Fore
SplineSet
160 456 m 0xbc
 256 456 320 384 320 288 c 2
 320 128 l 1
 320 0 l 1
 256 0 l 1x7c
 256 19 l 1
 226 0 181 -8 152 -8 c 0
 88 -8 -8 8 -8 128 c 0
 -8 248 96 264 152 264 c 0
 240 264 256 264 256 288 c 0
 256 352 224 384 160 384 c 0
 131 384 108 377 92 364 c 1
 35 397 l 1
 63 434 107 456 160 456 c 0xbc
256 216 m 2
 256 202 233 199 206 199 c 0
 188 199 168 200 152 200 c 0
 80 200 64 168 64 128 c 0
 64 80 88 64 152 64 c 0xbc
 184 64 256 64 256 104 c 2
 256 216 l 2
EndSplineSet
Validated: 1
EndChar

StartChar: b
Encoding: 98 98 28
Width: 384
VWidth: 0
Flags: W
HStem: -8 72<95.9336 223.92> 0 21G<0 64> 384 72<95.9336 223.92> 620 20G<0 64>
VStem: 0 64<0 26 98.2971 349.703 418 640> 256 72<97.4323 350.568>
LayerCount: 2
Fore
SplineSet
0 640 m 1x7c
 64 640 l 1
 64 418 l 1
 90 443 122 456 160 456 c 0
 288 456 328 352 328 224 c 0
 328 96 288 -8 160 -8 c 0xbc
 122 -8 90 3 64 26 c 1
 64 0 l 1
 0 0 l 1
 0 224 l 1
 0 640 l 1x7c
160 384 m 0
 96 384 64 352 64 224 c 0
 64 96 96 64 160 64 c 0
 256 64 256 144 256 224 c 0
 256 304 256 384 160 384 c 0
EndSplineSet
Validated: 1
EndChar

StartChar: c
Encoding: 99 99 29
Width: 384
VWidth: 0
Flags: W
HStem: -8 72<96.0801 225.071> 384 72<96.0801 225.071>
VStem: -8 72<97.4323 350.568> 250 66<90.3828 118.955 329.045 357.617>
LayerCount: 2
Fore
SplineSet
160 456 m 0
 249 456 296 405 316 331 c 1
 250 313 l 1
 241 354 218 384 160 384 c 0
 64 384 64 304 64 224 c 0
 64 144 64 64 160 64 c 0
 218 64 241 94 250 135 c 1
 316 117 l 1
 296 43 249 -8 160 -8 c 0
 32 -8 -8 96 -8 224 c 0
 -8 352 32 456 160 456 c 0
EndSplineSet
Validated: 1
EndChar

StartChar: d
Encoding: 100 100 30
Width: 384
VWidth: 0
Flags: W
HStem: -8 72<96.0801 224.066> 0 21G<256 320> 384 72<96.0801 224.066> 620 20G<256 320>
VStem: -8 72<97.4323 350.568> 256 64<0 26 98.2971 349.703 418 640>
LayerCount: 2
Fore
SplineSet
320 640 m 1xbc
 320 224 l 1
 320 0 l 1
 256 0 l 1x7c
 256 26 l 1
 230 3 198 -8 160 -8 c 0
 32 -8 -8 96 -8 224 c 0
 -8 352 32 456 160 456 c 0
 198 456 230 443 256 418 c 1
 256 640 l 1
 320 640 l 1xbc
160 384 m 0
 64 384 64 304 64 224 c 0
 64 144 64 64 160 64 c 0xbc
 224 64 256 96 256 224 c 0
 256 352 224 384 160 384 c 0
EndSplineSet
Validated: 1
EndChar

StartChar: f
Encoding: 102 102 31
Width: 384
VWidth: 0
Flags: W
HStem: 0 21G<64 128> 256 64<0 64 128 256> 576 72<158.438 292.045>
VStem: 64 64<0 256 320 542.355>
LayerCount: 2
Fore
SplineSet
224 648 m 0
 284 648 335 619 365 566 c 1
 307 533 l 1
 294 559 270 576 224 576 c 0
 160 576 128 544 128 448 c 2
 128 320 l 1
 256 320 l 1
 256 256 l 1
 128 256 l 1
 128 0 l 1
 64 0 l 1
 64 256 l 1
 -0 256 l 1
 -0 320 l 1
 64 320 l 1
 64 448 l 2
 64 576 128 648 224 648 c 0
EndSplineSet
Validated: 1
EndChar

StartChar: g
Encoding: 103 103 32
Width: 384
VWidth: 0
Flags: W
HStem: -200 72<94.6477 226.139> -8 72<96.1342 225.884> 384 72<96.1342 227.685> 428 20G<256 320>
VStem: -8 72<95.7157 352.284> 5 64<-103.627 -72.984> 256 64<-94.355 32 94.7727 355.922 416 448>
LayerCount: 2
Fore
SplineSet
160 456 m 0xea
 192 456 232 448 256 416 c 1
 256 448 l 1
 320 448 l 1
 320 0 l 2
 320 -128 288 -200 160 -200 c 0
 60 -200 18 -156 5 -75 c 1
 69 -57 l 1xd6
 81 -109 111 -128 160 -128 c 0
 224 -128 256 -96 256 0 c 2
 256 32 l 1
 224 0 200 -8 160 -8 c 0
 64 -8 -8 32 -8 224 c 0
 -8 416 64 456 160 456 c 0xea
160 384 m 0xea
 64 384 64 304 64 224 c 0
 64 144 64 64 160 64 c 0
 240 64 256 120 256 192 c 2
 256 256 l 2
 256 336 240 384 160 384 c 0xea
EndSplineSet
Validated: 1
EndChar

StartChar: u
Encoding: 117 117 33
Width: 384
VWidth: 0
Flags: W
HStem: -8 72<105.062 213.688> 0 21G<256 320> 428 20G<0 64 256 320>
VStem: 0 64<112.607 448> 256 64<0 35 112.908 448>
LayerCount: 2
Fore
SplineSet
160 -8 m 0xb8
 80 -8 0 32 0 224 c 2
 0 448 l 1
 64 448 l 1
 64 224 l 2
 64 128 96 64 160 64 c 0xb8
 240 64 256 165 256 224 c 2
 256 448 l 1
 320 448 l 1
 320 224 l 1
 320 0 l 1
 256 0 l 1x78
 256 35 l 1
 230 8 198 -8 160 -8 c 0xb8
EndSplineSet
Validated: 1
EndChar

StartChar: v
Encoding: 118 118 34
Width: 384
VWidth: 0
Flags: W
HStem: 0 21G<128 192> 428 20G<0 64 256 320>
VStem: 0 64<289.233 448> 128 64<0 60.743> 256 64<289.233 448>
CounterMasks: 1 38
LayerCount: 2
Fore
SplineSet
0 448 m 1
 64 448 l 1
 64 384 l 2
 64 319 122 197 160 104 c 1
 198 197 256 319 256 384 c 2
 256 448 l 1
 320 448 l 1
 320 384 l 2
 320 256 192 32 192 0 c 1
 128 0 l 1
 128 32 0 256 0 384 c 2
 0 448 l 1
EndSplineSet
Validated: 1
EndChar

StartChar: w
Encoding: 119 119 35
Width: 384
VWidth: 0
Flags: W
HStem: 0 21G<64 128 192 256> 428 20G<0 64 256 320>
VStem: 0 64<184.926 448> 64 64<0 67.721> 128 64<136.356 320> 192 64<0 66.9375> 256 64<184.926 448>
LayerCount: 2
Fore
SplineSet
0 448 m 1xe0
 64 448 l 1
 64 416 l 2
 64 250 81 162 98 106 c 1
 113 162 128 235 128 320 c 1
 192 320 l 1
 192 235 207 162 222 106 c 1
 239 162 256 250 256 416 c 2
 256 448 l 1
 320 448 l 1
 320 416 l 2xea
 320 64 256 64 256 0 c 1
 192 0 l 1
 192 8 176 44 160 100 c 1
 144 44 128 8 128 0 c 1
 64 0 l 1xd4
 64 62 4 64 0 384 c 1
 0 416 l 1
 0 448 l 1xe0
EndSplineSet
Validated: 1
EndChar

StartChar: h
Encoding: 104 104 36
Width: 384
VWidth: 0
Flags: W
HStem: 0 21G<0 64 256 320> 384 72<99.6911 223.903> 620 20G<0 64>
VStem: 0 64<0 344.822 420 640> 256 64<0 349.004>
LayerCount: 2
Fore
SplineSet
0 640 m 1
 64 640 l 1
 64 420 l 1
 94 448 131 456 160 456 c 0
 320 456 320 320 320 224 c 2
 320 0 l 1
 256 0 l 1
 256 224 l 2
 256 352 224 384 160 384 c 0
 104 384 64 352 64 224 c 2
 64 0 l 1
 0 0 l 1
 0 224 l 1
 0 640 l 1
EndSplineSet
Validated: 1
EndChar

StartChar: i
Encoding: 105 105 37
Width: 384
VWidth: 0
Flags: W
HStem: 0 64<32 128 192 288> 384 64<64 128> 504 80<124.393 195.607>
VStem: 64 128<384 448> 120 80<508.393 579.607> 128 64<64 384>
LayerCount: 2
Fore
SplineSet
160 584 m 0xe8
 182 584 200 566 200 544 c 0
 200 522 182 504 160 504 c 0
 138 504 120 522 120 544 c 0
 120 566 138 584 160 584 c 0xe8
64 448 m 1xf0
 128 448 l 1xe4
 192 448 l 1
 192 384 l 1xf0
 192 64 l 1
 288 64 l 1
 288 0 l 1
 192 0 l 1
 128 0 l 1
 32 0 l 1
 32 64 l 1
 128 64 l 1
 128 384 l 1xe4
 64 384 l 1
 64 448 l 1xf0
EndSplineSet
Validated: 1
EndChar

StartChar: j
Encoding: 106 106 38
Width: 384
VWidth: 0
Flags: W
HStem: -200 72<64.8501 193.516> 384 64<96 224> 504 80<156.393 227.607>
VStem: -31 69<-98.4681 -74.0262> 152 80<508.393 579.607> 224 64<-94.355 384>
LayerCount: 2
Fore
SplineSet
192 584 m 0xf8
 214 584 232 566 232 544 c 0
 232 522 214 504 192 504 c 0
 170 504 152 522 152 544 c 0
 152 566 170 584 192 584 c 0xf8
96 448 m 1
 224 448 l 1
 288 448 l 1
 288 0 l 2
 288 -128 224 -200 128 -200 c 0
 52 -200 -9 -160 -31 -76 c 1
 38 -57 l 1
 48 -97 73 -128 128 -128 c 0
 208 -128 224 -72 224 0 c 2
 224 384 l 1xf4
 96 384 l 1
 96 448 l 1
EndSplineSet
Validated: 1
EndChar

StartChar: k
Encoding: 107 107 39
Width: 384
VWidth: 0
Flags: W
HStem: 0 21G<0 64 256 320> 128 64<64 97.156> 428 20G<256 320> 620 20G<0 64>
VStem: 0 64<0 128 192 640> 256 64<0 119.001 378.157 448>
LayerCount: 2
Fore
SplineSet
0 640 m 1
 64 640 l 1
 64 192 l 1
 88 192 256 352 256 448 c 1
 320 448 l 1
 320 392 276 325 225 266 c 1
 266 214 320 121 320 0 c 1
 256 0 l 1
 256 95 217 172 180 219 c 1
 126 166 75 128 64 128 c 1
 64 0 l 1
 0 0 l 1
 0 640 l 1
EndSplineSet
Validated: 1
EndChar

StartChar: l
Encoding: 108 108 40
Width: 384
VWidth: 0
Flags: W
LayerCount: 2
Fore
SplineSet
32 640 m 1
 192 640 l 1
 192 160 l 2
 192 64 224 64 288 64 c 1
 288 0 l 1
 160 0 128 64 128 160 c 2
 128 576 l 1
 32 576 l 1
 32 640 l 1
EndSplineSet
Validated: 1
EndChar

StartChar: m
Encoding: 109 109 41
Width: 384
VWidth: 0
Flags: W
HStem: 0 21G<0 64 128 192 256 320> 384 72<77.0406 126.119 204.499 254.217> 428 20G<0 64>
VStem: 0 64<0 371.974 413 448> 128 64<0 371.974> 256 64<0 382.758>
CounterMasks: 1 1c
LayerCount: 2
Fore
SplineSet
112 456 m 0xdc
 157 456 177 433 185 402 c 1
 201 429 213 456 240 456 c 0
 320 456 320 384 320 320 c 2
 320 0 l 1
 256 0 l 1
 256 320 l 2
 256 352 256 384 240 384 c 0
 223 384 206 366 192 347 c 1
 192 338 192 329 192 320 c 2
 192 0 l 1
 128 0 l 1
 128 320 l 2
 128 352 128 384 112 384 c 0xdc
 95 384 78 366 64 347 c 1
 64 0 l 1
 0 0 l 1
 0 352 l 1
 0 448 l 1
 64 448 l 1xbc
 64 413 l 1
 77 436 89 456 112 456 c 0xdc
EndSplineSet
Validated: 1
EndChar

StartChar: n
Encoding: 110 110 42
Width: 384
VWidth: 0
Flags: W
HStem: 0 21G<0 64 256 320> 384 72<106.312 214.938> 428 20G<0 64>
VStem: 0 64<0 335.092 413 448> 256 64<0 335.393>
LayerCount: 2
Fore
SplineSet
160 456 m 0xd8
 240 456 320 416 320 224 c 2
 320 0 l 1
 256 0 l 1
 256 224 l 2
 256 320 224 384 160 384 c 0xd8
 80 384 64 283 64 224 c 2
 64 0 l 1
 0 0 l 1
 0 224 l 1
 0 448 l 1
 64 448 l 1xb8
 64 413 l 1
 90 440 122 456 160 456 c 0xd8
EndSplineSet
Validated: 1
EndChar

StartChar: o
Encoding: 111 111 43
Width: 384
VWidth: 0
Flags: W
LayerCount: 2
Fore
SplineSet
160 456 m 0
 288 456 328 352 328 224 c 0
 328 96 288 -8 160 -8 c 0
 32 -8 -8 96 -8 224 c 0
 -8 352 32 456 160 456 c 0
160 384 m 0
 64 384 64 304 64 224 c 0
 64 144 64 64 160 64 c 0
 256 64 256 144 256 224 c 0
 256 304 256 384 160 384 c 0
EndSplineSet
Validated: 1
EndChar

StartChar: p
Encoding: 112 112 44
Width: 384
VWidth: 0
Flags: W
HStem: -8 72<94.1163 223.866> 384 72<92.3155 223.866> 428 20G<0 64>
VStem: 0 64<-192 32 94.7727 355.922 416 448> 256 72<95.7157 352.284>
LayerCount: 2
Fore
SplineSet
160 456 m 0xd8
 256 456 328 416 328 224 c 0
 328 32 256 -8 160 -8 c 0
 120 -8 96 0 64 32 c 1
 64 -192 l 1
 0 -192 l 1
 0 21 0 235 0 448 c 1
 64 448 l 1xb8
 64 416 l 1
 88 448 128 456 160 456 c 0xd8
160 384 m 0xd8
 80 384 64 336 64 256 c 2
 64 192 l 2
 64 120 80 64 160 64 c 0
 256 64 256 144 256 224 c 0
 256 304 256 384 160 384 c 0xd8
EndSplineSet
Validated: 1
EndChar

StartChar: q
Encoding: 113 113 45
Width: 384
VWidth: 0
Flags: W
HStem: -8 72<96.1342 225.884> 384 72<96.1342 227.685> 428 20G<256 320>
VStem: -8 72<95.7157 352.284> 256 64<-192 32 94.7727 355.922 416 448>
LayerCount: 2
Fore
SplineSet
160 456 m 0xd8
 192 456 232 448 256 416 c 1
 256 448 l 1
 320 448 l 1xb8
 320 235 320 21 320 -192 c 1
 256 -192 l 1
 256 32 l 1
 224 0 200 -8 160 -8 c 0
 64 -8 -8 32 -8 224 c 0
 -8 416 64 456 160 456 c 0xd8
160 384 m 0xd8
 64 384 64 304 64 224 c 0
 64 144 64 64 160 64 c 0
 240 64 256 120 256 192 c 2
 256 256 l 2
 256 336 240 384 160 384 c 0xd8
EndSplineSet
Validated: 1
EndChar

StartChar: r
Encoding: 114 114 46
Width: 384
VWidth: 0
Flags: W
HStem: 0 21G<0 64> 384 72<92.3155 224.742> 428 20G<0 64>
VStem: 0 64<0 355.922 416 448> 250 68<329.103 357.42>
LayerCount: 2
Fore
SplineSet
160 456 m 0xd8
 234 456 295 432 318 331 c 1
 250 313 l 1
 241 354 218 384 160 384 c 0xd8
 80 384 64 336 64 256 c 2
 64 0 l 1
 0 0 l 1
 0 448 l 1
 64 448 l 1xb8
 64 416 l 1
 88 448 128 456 160 456 c 0xd8
EndSplineSet
Validated: 1
EndChar

StartChar: s
Encoding: 115 115 47
Width: 384
VWidth: 0
Flags: W
HStem: -8 72<89.5414 237.552> 192 64<80.5867 239.413> 384 72<82.4479 230.248>
VStem: -8 72<271.978 363.685> 256 72<84.3145 176.022>
CounterMasks: 1 e0
LayerCount: 2
Fore
SplineSet
160 456 m 0
 234 456 293 432 317 363 c 1
 244 344 l 1
 229 371 201 384 160 384 c 0
 88 384 64 352 64 320 c 0
 64 272 96 256 160 256 c 0
 296 256 328 192 328 128 c 0
 328 48 272 -8 160 -8 c 0
 86 -8 27 16 3 85 c 1
 76 104 l 1
 90 77 119 64 160 64 c 0
 232 64 256 96 256 128 c 0
 256 176 224 192 160 192 c 0
 24 192 -8 256 -8 320 c 0
 -8 400 48 456 160 456 c 0
EndSplineSet
Validated: 1
EndChar

StartChar: t
Encoding: 116 116 48
Width: 384
VWidth: 0
Flags: W
HStem: -8 72<158.438 298.086> 384 64<0 64 128 320> 620 20G<64 128>
VStem: 64 64<97.645 384 448 640>
LayerCount: 2
Fore
SplineSet
64 640 m 1
 128 640 l 1
 128 448 l 1
 320 448 l 1
 320 384 l 1
 128 384 l 1
 128 192 l 2
 128 96 160 64 224 64 c 0
 253 64 274 71 288 83 c 1
 336 35 l 1
 306 7 268 -8 224 -8 c 0
 128 -8 64 64 64 192 c 2
 64 384 l 1
 0 384 l 1
 0 448 l 1
 64 448 l 1
 64 640 l 1
EndSplineSet
Validated: 1
EndChar

StartChar: x
Encoding: 120 120 49
Width: 384
VWidth: 0
Flags: W
HStem: 0 21G<0 64 256 320> 428 20G<0 64 256 320>
VStem: 0 64<0 105.089 339.489 448> 256 64<0 105.089 339.489 448>
LayerCount: 2
Fore
SplineSet
0 448 m 1
 64 448 l 1
 64 416 l 2
 64 345 108 303 160 262 c 1
 212 303 256 345 256 416 c 2
 256 448 l 1
 320 448 l 1
 320 416 l 2
 320 329 267 273 209 223 c 1
 265 178 316 125 320 32 c 1
 320 0 l 1
 256 0 l 1
 256 32 l 2
 256 95 212 139 160 182 c 1
 108 139 64 95 64 32 c 2
 64 0 l 1
 0 0 l 1
 0 32 l 1
 4 125 55 178 111 223 c 1
 53 273 0 329 0 416 c 2
 0 448 l 1
EndSplineSet
Validated: 1
EndChar

StartChar: y
Encoding: 121 121 50
Width: 384
VWidth: 0
Flags: W
HStem: -200 72<94.6477 226.139> -8 72<94.8477 225.884> 428 20G<0 64 256 320>
VStem: 0 64<-96.5093 -73.1301 95.8527 448> 256 64<-94.355 32 94.7727 448>
LayerCount: 2
Fore
SplineSet
0 224 m 2
 0 448 l 1
 64 448 l 1
 64 224 l 2
 64 144 64 64 160 64 c 0
 240 64 256 120 256 192 c 2
 256 448 l 1
 320 448 l 1
 320 0 l 2
 320 -128 288 -200 160 -200 c 0
 60 -200 18 -156 5 -75 c 1
 69 -57 l 1
 81 -109 111 -128 160 -128 c 0
 224 -128 256 -96 256 0 c 2
 256 32 l 1
 224 0 200 -8 160 -8 c 0
 64 -8 0 56 0 224 c 2
EndSplineSet
Validated: 1
EndChar

StartChar: z
Encoding: 122 122 51
Width: 384
VWidth: 0
Flags: W
LayerCount: 2
Fore
SplineSet
0 448 m 1
 320 448 l 1
 320 384 l 1
 80 64 l 1
 320 64 l 1
 320 0 l 1
 0 0 l 1
 0 64 l 1
 240 384 l 1
 0 384 l 1
 0 448 l 1
EndSplineSet
Validated: 1
EndChar

StartChar: zero
Encoding: 48 48 52
Width: 384
VWidth: 0
Flags: W
HStem: -8 72<121.826 191.054> 576 72<128.946 198.174>
VStem: -8 72<163.405 473.375> 256 72<166.625 476.595>
LayerCount: 2
Fore
SplineSet
160 648 m 0
 256 648 328 512 328 320 c 0
 328 128 256 -8 160 -8 c 0
 64 -8 -8 128 -8 320 c 0
 -8 512 64 648 160 648 c 0
160 576 m 0
 148 576 138 571 128 562 c 1
 235 165 l 1
 249 215 256 275 256 320 c 0
 256 416 224 576 160 576 c 0
85 475 m 1
 71 425 64 365 64 320 c 0
 64 224 96 64 160 64 c 0
 172 64 182 69 192 78 c 1
 85 475 l 1
EndSplineSet
Validated: 1
EndChar

StartChar: one
Encoding: 49 49 53
Width: 384
VWidth: 0
Flags: W
HStem: 0 64<0 128 192 320> 620 20G<114.667 192>
VStem: 128 64<64 525>
LayerCount: 2
Fore
SplineSet
128 640 m 1
 192 640 l 1
 192 621 l 1
 192 64 l 1
 320 64 l 1
 320 0 l 1
 0 0 l 1
 0 64 l 1
 128 64 l 1
 128 525 l 1
 53 412 l 1
 0 448 l 1
 128 640 l 1
EndSplineSet
Validated: 1
EndChar

StartChar: two
Encoding: 50 50 54
Width: 384
VWidth: 0
Flags: W
HStem: 0 64<64 320> 576 72<97.6911 223.304>
VStem: 0 64<64 147.438> 256 72<381.193 542.444>
LayerCount: 2
Fore
SplineSet
160 648 m 0
 256 648 328 576 328 448 c 0
 328 272 64 256 64 64 c 1
 320 64 l 1
 320 0 l 1
 0 0 l 1
 0 64 l 2
 0 320 256 288 256 448 c 0
 256 512 240 576 160 576 c 0
 105 576 80 545 70 505 c 1
 68 506 l 1
 2 524 l 1
 25 604 80 648 160 648 c 0
EndSplineSet
Validated: 1
EndChar

StartChar: three
Encoding: 51 51 55
Width: 384
VWidth: 0
Flags: W
HStem: -8 72<101.993 219.109> 312 72<160 223.914> 576 72<96.6383 223.421>
VStem: -1 70<97.731 133.674 523.277 547.832> 256 72<105.344 282.056 415.925 543.611>
LayerCount: 2
Fore
SplineSet
160 648 m 0
 256 648 328 576 328 480 c 0
 328 426 305 379 268 349 c 1
 305 319 328 271 328 208 c 0
 328 112 288 -8 160 -8 c 0
 62 -8 16 53 -1 132 c 1
 69 151 l 1
 79 104 103 64 160 64 c 0
 240 64 256 144 256 208 c 0
 256 272 224 312 160 312 c 1
 160 384 l 1
 224 384 256 432 256 480 c 0
 256 528 224 576 160 576 c 0
 108 576 77 544 67 506 c 1
 -2 525 l 1
 16 597 80 648 160 648 c 0
EndSplineSet
Validated: 1
EndChar

StartChar: four
Encoding: 52 52 56
Width: 384
VWidth: 0
Flags: W
HStem: 0 21G<192 256> 192 64<72 192 256 320> 620 20G<182 256>
VStem: 192 64<0 192 256 497>
LayerCount: 2
Fore
SplineSet
192 640 m 1
 256 640 l 1
 256 625 l 1
 256 256 l 1
 320 256 l 1
 320 192 l 1
 256 192 l 1
 256 0 l 1
 192 0 l 1
 192 192 l 1
 0 192 l 1
 0 256 l 1
 192 640 l 1
192 497 m 1
 72 256 l 1
 192 256 l 1
 192 497 l 1
EndSplineSet
Validated: 1
EndChar

StartChar: five
Encoding: 53 53 57
Width: 384
VWidth: 0
Flags: W
HStem: -8 72<96.2845 223.464> 384 72<108.356 223.779> 576 64<96 288>
VStem: 32 64<352 378.305 416 576> 256 72<100 347.174>
LayerCount: 2
Fore
SplineSet
32 640 m 1
 288 640 l 1
 288 576 l 1
 96 576 l 1
 96 416 l 1
 112 448 144 456 160 456 c 0
 240 456 328 392 328 224 c 2
 328 192 l 1
 327 192 l 1
 316 48 235 -8 160 -8 c 0
 104 -8 43 24 12 102 c 1
 72 136 l 1
 85 80 114 64 160 64 c 0
 224 64 256 96 256 224 c 0
 256 352 224 384 160 384 c 0
 128 384 112 384 96 352 c 1
 32 352 l 1
 32 640 l 1
EndSplineSet
Validated: 1
EndChar

StartChar: six
Encoding: 54 54 58
Width: 384
VWidth: 0
Flags: W
HStem: -8 72<103.261 216.739> 384 72<103.1 216.739> 576 72<101.378 228.128>
VStem: -8 72<108.99 399.365> 256 72<108.99 339.01>
LayerCount: 2
Fore
SplineSet
160 648 m 0
 204 648 243 633 273 582 c 1
 223 553 l 1
 208 572 188 576 160 576 c 0
 102 576 78 551 69 422 c 1
 97 445 129 456 160 456 c 0
 240 456 328 384 328 224 c 0
 328 64 240 -8 160 -8 c 0
 80 -8 -8 64 -8 224 c 0
 -8 576 64 648 160 648 c 0
160 384 m 0
 112 384 64 352 64 224 c 0
 64 96 112 64 160 64 c 0
 208 64 256 96 256 224 c 0
 256 352 208 384 160 384 c 0
EndSplineSet
Validated: 1
EndChar

StartChar: seven
Encoding: 55 55 59
Width: 384
VWidth: 0
Flags: W
LayerCount: 2
Fore
SplineSet
0 640 m 1
 320 640 l 1
 320 576 l 2
 320 448 128 192 128 64 c 2
 128 0 l 1
 64 0 l 1
 64 64 l 2
 64 192 256 448 256 576 c 1
 0 576 l 1
 0 640 l 1
EndSplineSet
Validated: 1
EndChar

StartChar: eight
Encoding: 56 56 60
Width: 384
VWidth: 0
Flags: W
HStem: -8 72<100.891 219.109> 312 72<96.0859 223.914> 576 72<96.5795 223.421>
VStem: -8 72<106.31 282.056 415.925 543.611> 256 72<105.344 282.056 415.925 543.611>
LayerCount: 2
Fore
SplineSet
160 648 m 0
 256 648 328 576 328 480 c 0
 328 426 305 379 268 349 c 1
 305 319 328 271 328 208 c 0
 328 112 288 -8 160 -8 c 0
 32 -8 -8 96 -8 208 c 0
 -8 271 15 319 52 349 c 1
 15 379 -8 426 -8 480 c 0
 -8 576 64 648 160 648 c 0
160 576 m 0
 96 576 64 528 64 480 c 0
 64 432 96 384 160 384 c 0
 224 384 256 432 256 480 c 0
 256 528 224 576 160 576 c 0
160 312 m 0
 96 312 64 272 64 208 c 0
 64 144 80 64 160 64 c 0
 240 64 256 144 256 208 c 0
 256 272 224 312 160 312 c 0
EndSplineSet
Validated: 1
EndChar

StartChar: nine
Encoding: 57 57 61
Width: 384
VWidth: 0
Flags: W
HStem: -8 72<91.8723 218.622> 184 72<103.261 216.9> 576 72<103.261 216.739>
VStem: -8 72<300.99 531.01> 256 72<240.635 531.01>
LayerCount: 2
Fore
SplineSet
160 -8 m 0
 116 -8 77 7 47 58 c 1
 97 87 l 1
 112 68 132 64 160 64 c 0
 218 64 242 89 251 218 c 1
 223 195 191 184 160 184 c 0
 80 184 -8 256 -8 416 c 0
 -8 576 80 648 160 648 c 0
 240 648 328 576 328 416 c 0
 328 64 256 -8 160 -8 c 0
160 256 m 0
 208 256 256 288 256 416 c 0
 256 544 208 576 160 576 c 0
 112 576 64 544 64 416 c 0
 64 288 112 256 160 256 c 0
EndSplineSet
Validated: 1
EndChar

StartChar: dollar
Encoding: 36 36 62
Width: 384
VWidth: 0
Flags: W
HStem: -5 74<93.6941 128 192 224.237> 322 65<89.0394 128> 573 72<89.0394 128>
VStem: -8 72<100.258 132.816 410.534 550.115> 128 64<-64 -0.0732117 69 315 387 573 639.751 704> 256 72<101.691 279.488>
CounterMasks: 1 1c
LayerCount: 2
Fore
SplineSet
128 704 m 1
 192 704 l 1
 192 645 l 1
 246 636 290 602 312 554 c 1
 244 536 l 1
 234 555 216 567 192 573 c 1
 192 382 l 1
 283 368 328 293 328 192 c 0
 328 79 272 9 192 -5 c 1
 192 -64 l 1
 128 -64 l 1
 128 -5 l 1
 64 6 15 54 -2 131 c 1
 67 150 l 1
 75 108 95 79 128 69 c 1
 128 322 l 1
 48 335 -8 395 -8 480 c 0
 -8 565 48 631 128 645 c 1
 128 704 l 1
128 573 m 1
 85 563 64 532 64 480 c 0
 64 428 85 397 128 387 c 1
 128 573 l 1
192 315 m 1
 192 69 l 1
 235 83 256 127 256 192 c 0
 256 233 244 297 192 315 c 1
EndSplineSet
Validated: 1
EndChar

StartChar: ampersand
Encoding: 38 38 63
Width: 384
VWidth: 0
Flags: W
HStem: -8 72<97.6764 193.962> 0 21G<256 320> 568 80<133.96 187.527>
VStem: 0 64<98.6113 233.714> 64 64<416.794 564.62> 192 64<437.756 564.719> 256 64<0 51.0028 241.444 352>
LayerCount: 2
Fore
SplineSet
160 648 m 0xa8
 224 648 256 581 256 528 c 0xac
 256 449 223 391 185 344 c 1
 205 309 228 274 249 239 c 1
 255 284 256 327 256 352 c 1
 320 352 l 1
 320 285 314 210 297 147 c 1
 311 111 320 73 320 32 c 2
 320 0 l 1
 256 0 l 1x62
 256 32 l 2
 256 39 256 45 255 52 c 1
 229 15 193 -8 144 -8 c 0
 48 -8 0 64 0 176 c 0xb2
 0 243 52 292 102 346 c 1
 80 397 64 455 64 528 c 0
 64 581 96 648 160 648 c 0xa8
160 568 m 0
 144 568 128 544 128 528 c 0
 128 485 138 446 153 409 c 1
 176 443 192 481 192 528 c 0
 192 546 176 568 160 568 c 0
133 287 m 1
 95 248 64 215 64 176 c 0xb0
 64 96 112 64 144 64 c 0
 184 64 210 96 227 140 c 1
 202 187 165 233 133 287 c 1
EndSplineSet
Validated: 1
EndChar

StartChar: at
Encoding: 64 64 64
Width: 384
VWidth: 0
Flags: W
HStem: -8 21G<96 185> 152 72<193.083 246.859> 416 72<193.083 246.859> 576 72<101.908 226.249>
VStem: -8 72<107.234 532.766> 112 72<227.205 412.795> 256 64<152 161 227.899 412.101 479 546.517>
LayerCount: 2
Fore
SplineSet
160 648 m 0
 264 648 320 576 320 488 c 2
 320 352 l 1
 320 288 l 1
 320 152 l 1
 256 152 l 1
 256 161 l 1
 244 155 231 152 216 152 c 0
 144 152 112 224 112 320 c 0
 112 416 144 488 216 488 c 0
 231 488 244 485 256 479 c 1
 256 488 l 2
 256 544 216 576 160 576 c 1
 70 569 64 496 64 378 c 0
 64 360 64 340 64 320 c 0
 64 300 64 280 64 262 c 0
 64 144 70 71 160 64 c 1
 187 66 206 74 220 87 c 1
 273 34 l 1
 247 4 210 -8 160 -8 c 0
 32 -8 -8 72 -8 320 c 0
 -8 568 32 648 160 648 c 0
216 416 m 0
 200 416 184 400 184 320 c 0
 184 240 200 224 216 224 c 0
 232 224 256 224 256 320 c 0
 256 416 232 416 216 416 c 0
EndSplineSet
Validated: 1
EndChar

StartChar: cent
Encoding: 162 162 65
Width: 384
VWidth: 0
Flags: W
HStem: 0 21G<128 192> 58 74<92.584 128 192 227.523> 444 74<92.584 128 192 227.523>
VStem: -8 72<159.404 416.596> 128 64<0 62.0991 132 444 513.901 576>
LayerCount: 2
Fore
SplineSet
128 576 m 1
 192 576 l 1
 192 518 l 1
 261 507 298 460 316 395 c 1
 250 377 l 1
 243 410 227 435 192 444 c 1
 192 132 l 1
 227 141 243 166 250 199 c 1
 316 181 l 1
 298 116 261 69 192 58 c 1
 192 0 l 1
 128 0 l 1
 128 58 l 1
 25 75 -8 171 -8 288 c 0
 -8 405 25 501 128 518 c 1
 128 576 l 1
128 444 m 1
 64 428 64 358 64 288 c 0
 64 218 64 148 128 132 c 1
 128 444 l 1
EndSplineSet
Validated: 1
EndChar

StartChar: sterling
Encoding: 163 163 66
Width: 384
VWidth: 0
Flags: W
HStem: 0 64<80 320> 288 64<0 44 118 224> 576 72<106.845 226.979>
VStem: 24 72<355.019 566.037> 53 67<114.687 288>
LayerCount: 2
Fore
SplineSet
160 648 m 0xf0
 220 648 258 620 278 583 c 1
 218 548 l 1
 210 564 194 576 160 576 c 0
 104 576 96 544 96 512 c 0xf0
 96 481 106 420 113 352 c 1
 224 352 l 1
 224 288 l 1
 118 288 l 1
 119 269 120 249 120 230 c 0
 120 163 110 101 80 64 c 1
 320 64 l 1
 320 0 l 1
 0 0 l 1
 0 64 l 1
 41 111 53 173 53 238 c 0xe8
 53 254 52 271 51 288 c 1
 0 288 l 1
 0 352 l 1
 44 352 l 1
 35 413 24 470 24 512 c 0
 24 576 64 648 160 648 c 0xf0
EndSplineSet
Validated: 1
EndChar

StartChar: yen
Encoding: 165 165 67
Width: 384
VWidth: 0
Flags: W
HStem: 0 21G<128 192> 128 64<32 128 192 288> 256 64<32 94 226 288> 620 20G<0 64 256 320>
VStem: 0 64<483.823 640> 128 64<0 128 192 256> 256 64<483.823 640>
CounterMasks: 1 0e
LayerCount: 2
Fore
SplineSet
0 640 m 1
 64 640 l 1
 64 576 l 2
 64 503 119 412 160 330 c 1
 201 412 256 503 256 576 c 2
 256 640 l 1
 320 640 l 1
 320 576 l 2
 320 504 266 396 226 320 c 1
 288 320 l 1
 288 256 l 1
 192 256 l 1
 192 192 l 1
 288 192 l 1
 288 128 l 1
 192 128 l 1
 192 0 l 1
 128 0 l 1
 128 128 l 1
 32 128 l 1
 32 192 l 1
 128 192 l 1
 128 256 l 1
 32 256 l 1
 32 320 l 1
 94 320 l 1
 54 396 0 504 0 576 c 2
 0 640 l 1
EndSplineSet
Validated: 1
EndChar

StartChar: section
Encoding: 167 167 68
Width: 384
VWidth: 0
Flags: W
HStem: -8 72<79.1992 240.801> 192 64<83.884 236.888> 384 64<83.1116 236.116> 576 72<79.1992 240.801>
VStem: -8 72<79.75 128 275.479 364.609 467.391 560.647> 256 72<79.3526 172.609 275.391 364.521 512 560.25>
LayerCount: 2
Fore
SplineSet
160 648 m 0
 288 648 328 576 328 512 c 1
 256 512 l 1
 256 560 224 576 160 576 c 0
 96 576 64 560 64 512 c 0
 64 464 112 448 160 448 c 0
 288 448 328 384 328 320 c 0
 328 284 316 249 282 224 c 1
 316 199 328 164 328 128 c 0
 328 64 288 -8 160 -8 c 0
 32 -8 -8 64 -8 128 c 1
 64 128 l 1
 64 80 96 64 160 64 c 0
 224 64 256 80 256 128 c 0
 256 176 208 192 160 192 c 0
 32 192 -8 256 -8 320 c 0
 -8 356 4 391 38 416 c 1
 4 441 -8 476 -8 512 c 0
 -8 576 32 648 160 648 c 0
160 384 m 0
 112 384 64 368 64 320 c 0
 64 272 112 256 160 256 c 0
 208 256 256 272 256 320 c 0
 256 368 208 384 160 384 c 0
EndSplineSet
Validated: 1
EndChar

StartChar: degree
Encoding: 176 176 69
Width: 384
VWidth: 0
Flags: W
HStem: 440 56<55.5717 136.428> 592 56<55.5717 136.428>
VStem: -8 56<503.572 584.428> 144 56<503.572 584.428>
LayerCount: 2
Fore
SplineSet
96 648 m 0
 153 648 200 601 200 544 c 0
 200 487 153 440 96 440 c 0
 39 440 -8 487 -8 544 c 0
 -8 601 39 648 96 648 c 0
96 592 m 0
 69 592 48 571 48 544 c 0
 48 517 69 496 96 496 c 0
 123 496 144 517 144 544 c 0
 144 571 123 592 96 592 c 0
EndSplineSet
Validated: 1
EndChar

StartChar: ordfeminine
Encoding: 170 170 70
Width: 384
VWidth: 0
Flags: W
HStem: 192 64<0 192> 312 72<64.7382 127.642> 448 64<65.2082 128> 576 72<62.1807 124.18>
VStem: -8 72<384.963 446.559> 128 64<312 332 384.631 448 512 573.75>
LayerCount: 2
Fore
SplineSet
96 648 m 0
 160 648 192 608 192 512 c 2
 192 448 l 1
 192 384 l 1
 192 312 l 1
 128 312 l 1
 128 332 l 1
 118 320 107 312 96 312 c 0
 32 312 -8 352 -8 416 c 0
 -8 480 32 512 96 512 c 2
 128 512 l 1
 128 544 128 576 96 576 c 0
 79 576 71 567 67 553 c 1
 5 570 l 1
 16 624 47 648 96 648 c 0
96 448 m 2
 64 448 64 424 64 416 c 0
 64 400 64 384 96 384 c 0
 126 384 128 398 128 413 c 2
 128 416 l 1
 128 448 l 1
 96 448 l 2
0 256 m 1
 192 256 l 1
 192 192 l 1
 0 192 l 1
 0 256 l 1
EndSplineSet
Validated: 1
EndChar

StartChar: ordmasculine
Encoding: 186 186 71
Width: 384
VWidth: 0
Flags: W
LayerCount: 2
Fore
SplineSet
96 648 m 0
 192 648 200 528 200 480 c 0
 200 432 192 312 96 312 c 0
 0 312 -8 432 -8 480 c 0
 -8 528 0 648 96 648 c 0
96 576 m 0
 64 576 64 544 64 480 c 0
 64 416 64 384 96 384 c 0
 128 384 128 416 128 480 c 0
 128 544 128 576 96 576 c 0
0 256 m 1
 192 256 l 1
 192 192 l 1
 0 192 l 1
 0 256 l 1
EndSplineSet
Validated: 1
EndChar

StartChar: Aring
Encoding: 197 197 72
Width: 384
VWidth: 0
Flags: W
HStem: 0 21G<0 64 256 320> 128 64<82 238> 736 48<119.971 200.029>
VStem: 0 64<0 118.678> 64 48<647.322 728.029> 208 48<647.322 728.029> 256 64<0 118.678>
LayerCount: 2
Fore
SplineSet
160 784 m 0xe8
 213 784 256 741 256 688 c 0xec
 256 652 236 621 207 604 c 1
 247 496 320 224 320 0 c 1
 256 0 l 1
 256 36 253 80 247 128 c 1
 73 128 l 1
 67 80 64 36 64 0 c 1
 0 0 l 1xf2
 0 224 73 496 113 604 c 1
 84 621 64 652 64 688 c 0
 64 741 107 784 160 784 c 0xe8
160 736 m 0
 133 736 112 715 112 688 c 0
 112 661 133 640 160 640 c 0
 187 640 208 661 208 688 c 0
 208 715 187 736 160 736 c 0
160 547 m 1
 128 442 99 310 82 192 c 1
 238 192 l 1
 221 310 192 442 160 547 c 1
EndSplineSet
Validated: 1
EndChar

StartChar: aring
Encoding: 229 229 73
Width: 384
VWidth: 0
Flags: W
HStem: -8 72<76.2412 247.61> 0 21G<256 320> 200 64<80.0822 255.933> 384 72<120.063 199.727> 552 48<119.971 200.029>
VStem: -8 72<78.0558 182.37> 64 48<463.397 544.029> 208 48<463.397 544.029> 256 64<0 19 75.3049 216 266.472 356.859>
LayerCount: 2
Fore
SplineSet
160 600 m 0xba80
 213 600 256 557 256 504 c 0xbb
 256 480 247 457 232 440 c 1
 287 414 320 357 320 288 c 2
 320 128 l 1
 320 0 l 1
 256 0 l 1x7880
 256 19 l 1
 226 0 181 -8 152 -8 c 0
 88 -8 -8 8 -8 128 c 0xbc80
 -8 248 96 264 152 264 c 0
 240 264 256 264 256 288 c 0
 256 352 224 384 160 384 c 0
 131 384 108 377 92 364 c 1
 35 397 l 1
 49 415 67 430 88 440 c 1
 73 457 64 480 64 504 c 0
 64 557 107 600 160 600 c 0xba80
160 552 m 0
 133 552 112 531 112 504 c 0
 112 477 133 456 160 456 c 0
 187 456 208 477 208 504 c 0
 208 531 187 552 160 552 c 0
256 216 m 2xbc80
 256 202 233 199 206 199 c 0
 188 199 168 200 152 200 c 0
 80 200 64 168 64 128 c 0
 64 80 88 64 152 64 c 0
 184 64 256 64 256 104 c 2
 256 216 l 2xbc80
EndSplineSet
Validated: 1
EndChar

StartChar: oslash
Encoding: 248 248 74
Width: 384
VWidth: 0
Flags: W
HStem: -8 72<110.677 223.92> 384 72<96.0801 209.323>
VStem: -8 72<134.01 350.568> 256 72<97.4323 313.99>
LayerCount: 2
Fore
SplineSet
276 489 m 1
 332 457 l 1
 292 388 l 1
 318 346 328 288 328 224 c 0
 328 96 288 -8 160 -8 c 0
 126 -8 98 -1 75 13 c 1
 44 -41 l 1
 -12 -9 l 1
 28 60 l 1
 2 102 -8 160 -8 224 c 0
 -8 352 32 456 160 456 c 0
 194 456 222 449 245 435 c 1
 276 489 l 1
160 384 m 0
 64 384 64 304 64 224 c 0
 64 192 64 160 70 133 c 1
 210 374 l 1
 197 380 181 384 160 384 c 0
250 315 m 1
 110 74 l 1
 123 68 139 64 160 64 c 0
 256 64 256 144 256 224 c 0
 256 256 256 288 250 315 c 1
EndSplineSet
Validated: 1
EndChar

StartChar: Oslash
Encoding: 216 216 75
Width: 384
VWidth: 0
Flags: W
HStem: -8 72<99.6138 216.226> 576 72<104.206 220.386>
VStem: -9 72<174.033 521.967> 257 72<118.033 465.967>
LayerCount: 2
Fore
SplineSet
274 688 m 1
 334 664 l 1
 298 576 l 1
 323 529 329 459 329 375 c 0
 329 356 328 337 328 317 c 0
 325 127 314 -8 159 -8 c 0
 157 -8 156 -8 154 -8 c 0
 119 -7 92 -0 70 12 c 1
 46 -48 l 1
 -14 -24 l 1
 22 64 l 1
 -3 111 -9 181 -9 265 c 0
 -9 284 -8 303 -8 323 c 0
 -5 513 6 648 161 648 c 0
 163 648 164 648 166 648 c 0
 201 647 228 640 250 628 c 1
 274 688 l 1
160 576 m 0
 68 575 67 479 64 322 c 0
 64 296 63 271 63 248 c 0
 63 220 64 195 66 173 c 1
 221 556 l 1
 208 569 189 576 164 576 c 0
 163 576 161 576 160 576 c 0
254 467 m 1
 99 84 l 1
 112 71 131 64 156 64 c 0
 157 64 158 64 159 64 c 0
 252 64 253 160 256 318 c 0
 256 344 257 369 257 392 c 0
 257 420 256 445 254 467 c 1
EndSplineSet
Validated: 1
EndChar

StartChar: grave
Encoding: 96 96 76
Width: 384
VWidth: 0
Flags: W
HStem: 510 148
VStem: 86 148
LayerCount: 2
Fore
SplineSet
132 658 m 1
 234 556 l 1
 188 510 l 1
 86 612 l 1
 132 658 l 1
EndSplineSet
Validated: 1
EndChar

StartChar: asciicircum
Encoding: 94 94 77
Width: 384
VWidth: 0
Flags: W
HStem: 515 141
VStem: 64 192
LayerCount: 2
Fore
SplineSet
160 656 m 1
 205 611 l 1
 256 560 l 1
 211 515 l 1
 160 566 l 1
 109 515 l 1
 64 560 l 1
 115 611 l 1
 160 656 l 1
EndSplineSet
Validated: 1
EndChar

StartChar: acute
Encoding: 180 180 78
Width: 384
VWidth: 0
Flags: W
HStem: 510 148
VStem: 86 148
LayerCount: 2
Fore
SplineSet
188 658 m 1
 234 612 l 1
 132 510 l 1
 86 556 l 1
 188 658 l 1
EndSplineSet
Validated: 1
EndChar

StartChar: cedilla
Encoding: 184 184 79
Width: 384
VWidth: 0
Flags: W
HStem: -160 72<80.312 172.094>
VStem: 176 64<-82.0914 -0.63092>
LayerCount: 2
Fore
SplineSet
152 64 m 1
 192 64 240 16 240 -48 c 0
 240 -104 192 -160 112 -160 c 0
 89 -160 69 -155 52 -146 c 1
 87 -87 l 1
 94 -88 102 -88 112 -88 c 0
 152 -88 176 -80 176 -48 c 0
 176 -24 160 0 152 0 c 1
 152 64 l 1
EndSplineSet
Validated: 1
EndChar

StartChar: asciitilde
Encoding: 126 126 80
Width: 384
VWidth: 0
Flags: W
HStem: 507 64<187.706 239.953> 581 64<88.2805 132.328>
VStem: 0 70<538.012 577.714> 250 70<574.286 613.988>
LayerCount: 2
Fore
SplineSet
104 645 m 0
 106 645 l 0
 143 645 173 621 189 590 c 0
 194 580 203 571 216 571 c 0
 221 571 226 572 232 575 c 0
 245 582 250 592 250 602 c 0
 250 605 250 608 249 611 c 1
 314 642 l 1
 318 632 320 621 320 609 c 0
 320 574 301 538 260 518 c 0
 244 510 229 507 215 507 c 0
 177 507 146 531 131 562 c 0
 126 572 117 581 104 581 c 0
 99 581 94 580 88 577 c 0
 75 570 70 560 70 550 c 0
 70 547 70 544 71 541 c 1
 6 510 l 1
 2 520 0 531 0 543 c 0
 0 578 19 614 60 634 c 0
 69 639 78 642 87 643 c 0
 92 645 98 645 104 645 c 0
EndSplineSet
Validated: 1
EndChar

StartChar: dieresis
Encoding: 168 168 81
Width: 384
VWidth: 0
Flags: W
HStem: 496 96<39.4403 120.56 199.44 280.56>
VStem: 32 96<503.44 584.56> 192 96<503.44 584.56>
LayerCount: 2
Fore
SplineSet
80 592 m 0
 107 592 128 571 128 544 c 0
 128 517 107 496 80 496 c 0
 53 496 32 517 32 544 c 0
 32 571 53 592 80 592 c 0
240 592 m 0
 267 592 288 571 288 544 c 0
 288 517 267 496 240 496 c 0
 213 496 192 517 192 544 c 0
 192 571 213 592 240 592 c 0
EndSplineSet
Validated: 1
EndChar

StartChar: Agrave
Encoding: 192 192 82
Width: 384
VWidth: 0
Flags: W
HStem: 0 21G<0 64 256 320> 128 64<82 238> 620 20G<112 208>
VStem: 0 64<0 125.753> 256 64<0 125.753>
LayerCount: 2
Fore
SplineSet
132 850 m 1
 234 748 l 1
 188 702 l 1
 86 804 l 1
 132 850 l 1
128 640 m 1
 192 640 l 1
 224 576 320 256 320 0 c 1
 256 0 l 1
 256 36 253 80 247 128 c 1
 73 128 l 1
 67 80 64 36 64 0 c 1
 0 0 l 1
 0 256 96 576 128 640 c 1
160 547 m 1
 128 442 99 310 82 192 c 1
 238 192 l 1
 221 310 192 442 160 547 c 1
EndSplineSet
Validated: 1
EndChar

StartChar: Aacute
Encoding: 193 193 83
Width: 384
VWidth: 0
Flags: W
HStem: 0 21G<0 64 256 320> 128 64<82 238> 620 20G<112 208>
VStem: 0 64<0 125.753> 256 64<0 125.753>
LayerCount: 2
Fore
SplineSet
188 850 m 1
 234 804 l 1
 132 702 l 1
 86 748 l 1
 188 850 l 1
128 640 m 1
 192 640 l 1
 224 576 320 256 320 0 c 1
 256 0 l 1
 256 36 253 80 247 128 c 1
 73 128 l 1
 67 80 64 36 64 0 c 1
 0 0 l 1
 0 256 96 576 128 640 c 1
160 547 m 1
 128 442 99 310 82 192 c 1
 238 192 l 1
 221 310 192 442 160 547 c 1
EndSplineSet
Validated: 1
EndChar

StartChar: Acircumflex
Encoding: 194 194 84
Width: 384
VWidth: 0
Flags: W
HStem: 0 21G<0 64 256 320> 128 64<82 238> 620 20G<112 208>
VStem: 0 64<0 125.753> 256 64<0 125.753>
LayerCount: 2
Fore
SplineSet
160 848 m 1
 205 803 l 1
 256 752 l 1
 211 707 l 1
 160 758 l 1
 109 707 l 1
 64 752 l 1
 115 803 l 1
 160 848 l 1
128 640 m 1
 192 640 l 1
 224 576 320 256 320 0 c 1
 256 0 l 1
 256 36 253 80 247 128 c 1
 73 128 l 1
 67 80 64 36 64 0 c 1
 0 0 l 1
 0 256 96 576 128 640 c 1
160 547 m 1
 128 442 99 310 82 192 c 1
 238 192 l 1
 221 310 192 442 160 547 c 1
EndSplineSet
Validated: 1
EndChar

StartChar: Atilde
Encoding: 195 195 85
Width: 384
VWidth: 0
Flags: W
HStem: 0 21G<0 64 256 320> 128 64<82 238> 620 20G<112 208> 699 64<187.706 239.953> 773 64<88.2805 132.328>
VStem: 0 70<0 125.753 730.012 769.714> 250 70<0 125.753 766.286 805.988>
LayerCount: 2
Fore
SplineSet
104 837 m 0
 106 837 l 0
 143 837 173 813 189 782 c 0
 194 772 203 763 216 763 c 0
 221 763 226 764 232 767 c 0
 245 774 250 784 250 794 c 0
 250 797 250 800 249 803 c 1
 314 834 l 1
 318 824 320 813 320 801 c 0
 320 766 301 730 260 710 c 0
 244 702 229 699 215 699 c 0
 177 699 146 723 131 754 c 0
 126 764 117 773 104 773 c 0
 99 773 94 772 88 769 c 0
 75 762 70 752 70 742 c 0
 70 739 70 736 71 733 c 1
 6 702 l 1
 2 712 0 723 0 735 c 0
 0 770 19 806 60 826 c 0
 69 831 78 834 87 835 c 0
 92 837 98 837 104 837 c 0
128 640 m 1
 192 640 l 1
 224 576 320 256 320 0 c 1
 256 0 l 1
 256 36 253 80 247 128 c 1
 73 128 l 1
 67 80 64 36 64 0 c 1
 0 0 l 1
 0 256 96 576 128 640 c 1
160 547 m 1
 128 442 99 310 82 192 c 1
 238 192 l 1
 221 310 192 442 160 547 c 1
EndSplineSet
Validated: 1
EndChar

StartChar: Adieresis
Encoding: 196 196 86
Width: 384
VWidth: 0
Flags: W
HStem: 0 21G<0 64 256 320> 128 64<82 238> 620 20G<112 208> 688 96<39.4403 120.56 199.44 280.56>
VStem: 0 64<0 125.753> 32 96<695.44 776.56> 192 96<695.44 776.56> 256 64<0 125.753>
LayerCount: 2
Fore
SplineSet
80 784 m 0xf4
 107 784 128 763 128 736 c 0
 128 709 107 688 80 688 c 0
 53 688 32 709 32 736 c 0
 32 763 53 784 80 784 c 0xf4
240 784 m 0
 267 784 288 763 288 736 c 0
 288 709 267 688 240 688 c 0
 213 688 192 709 192 736 c 0xf2
 192 763 213 784 240 784 c 0
128 640 m 1xf4
 192 640 l 1xf6
 224 576 320 256 320 0 c 1
 256 0 l 1
 256 36 253 80 247 128 c 1
 73 128 l 1
 67 80 64 36 64 0 c 1
 0 0 l 1xf9
 0 256 96 576 128 640 c 1xf4
160 547 m 1
 128 442 99 310 82 192 c 1
 238 192 l 1
 221 310 192 442 160 547 c 1
EndSplineSet
Validated: 1
EndChar

StartChar: Ccedilla
Encoding: 199 199 87
Width: 384
VWidth: 0
Flags: W
HStem: -160 72<80.312 172.094> -8 72<101.484 171.249> 576 72<100.381 219.938>
VStem: -8 72<107.877 533.553> 176 64<-82.0914 -8.40527> 245 65<90.0083 105.08 534.92 550.703>
LayerCount: 2
Fore
SplineSet
160 648 m 0
 247 648 289 607 310 539 c 1
 245 502 l 1
 234 550 210 576 160 576 c 0
 64 576 64 480 64 320 c 0
 64 160 64 64 160 64 c 0
 210 64 234 90 245 138 c 1
 310 101 l 1
 296 53 271 19 228 3 c 1
 236 -12 240 -29 240 -48 c 0
 240 -104 192 -160 112 -160 c 0
 89 -160 69 -155 52 -146 c 1
 87 -87 l 1
 94 -88 102 -88 112 -88 c 0
 152 -88 176 -80 176 -48 c 0
 176 -24 160 -8 152 -8 c 1
 -0 -3 -8 131 -8 320 c 0
 -8 512 0 648 160 648 c 0
EndSplineSet
Validated: 1
EndChar

StartChar: Egrave
Encoding: 200 200 88
Width: 384
VWidth: 0
Flags: W
HStem: 0 64<64 320> 320 64<64 256> 576 64<64 320>
VStem: 0 64<64 320 384 576>
LayerCount: 2
Fore
SplineSet
132 850 m 1
 234 748 l 1
 188 702 l 1
 86 804 l 1
 132 850 l 1
0 640 m 1
 320 640 l 1
 320 576 l 1
 64 576 l 1
 64 384 l 1
 256 384 l 1
 256 320 l 1
 64 320 l 1
 64 64 l 1
 320 64 l 1
 320 0 l 1
 0 0 l 1
 0 640 l 1
EndSplineSet
Validated: 1
EndChar

StartChar: Eacute
Encoding: 201 201 89
Width: 384
VWidth: 0
Flags: W
HStem: 0 64<64 320> 320 64<64 256> 576 64<64 320>
VStem: 0 64<64 320 384 576>
LayerCount: 2
Fore
SplineSet
188 850 m 1
 234 804 l 1
 132 702 l 1
 86 748 l 1
 188 850 l 1
0 640 m 1
 320 640 l 1
 320 576 l 1
 64 576 l 1
 64 384 l 1
 256 384 l 1
 256 320 l 1
 64 320 l 1
 64 64 l 1
 320 64 l 1
 320 0 l 1
 0 0 l 1
 0 640 l 1
EndSplineSet
Validated: 1
EndChar

StartChar: Ecircumflex
Encoding: 202 202 90
Width: 384
VWidth: 0
Flags: W
HStem: 0 64<64 320> 320 64<64 256> 576 64<64 320>
VStem: 0 64<64 320 384 576>
LayerCount: 2
Fore
SplineSet
160 848 m 1
 205 803 l 1
 256 752 l 1
 211 707 l 1
 160 758 l 1
 109 707 l 1
 64 752 l 1
 115 803 l 1
 160 848 l 1
0 640 m 1
 320 640 l 1
 320 576 l 1
 64 576 l 1
 64 384 l 1
 256 384 l 1
 256 320 l 1
 64 320 l 1
 64 64 l 1
 320 64 l 1
 320 0 l 1
 0 0 l 1
 0 640 l 1
EndSplineSet
Validated: 1
EndChar

StartChar: Edieresis
Encoding: 203 203 91
Width: 384
VWidth: 0
Flags: W
HStem: 0 64<64 320> 320 64<64 256> 576 64<64 320> 688 96<39.4403 120.56 199.44 280.56>
VStem: 0 64<64 320 384 576> 32 96<695.44 776.56> 192 96<695.44 776.56>
LayerCount: 2
Fore
SplineSet
80 784 m 0xf6
 107 784 128 763 128 736 c 0
 128 709 107 688 80 688 c 0
 53 688 32 709 32 736 c 0
 32 763 53 784 80 784 c 0xf6
240 784 m 0
 267 784 288 763 288 736 c 0
 288 709 267 688 240 688 c 0
 213 688 192 709 192 736 c 0
 192 763 213 784 240 784 c 0
0 640 m 1xfa
 320 640 l 1
 320 576 l 1
 64 576 l 1
 64 384 l 1
 256 384 l 1
 256 320 l 1
 64 320 l 1
 64 64 l 1
 320 64 l 1
 320 0 l 1
 0 0 l 1
 0 640 l 1xfa
EndSplineSet
Validated: 1
EndChar

StartChar: Igrave
Encoding: 204 204 92
Width: 384
VWidth: 0
Flags: W
HStem: 0 64<32 128 192 288> 576 64<32 128 192 288>
VStem: 128 64<64 576>
LayerCount: 2
Fore
SplineSet
132 850 m 1
 234 748 l 1
 188 702 l 1
 86 804 l 1
 132 850 l 1
32 640 m 1
 288 640 l 1
 288 576 l 1
 192 576 l 1
 192 64 l 1
 288 64 l 1
 288 0 l 1
 32 0 l 1
 32 64 l 1
 128 64 l 1
 128 576 l 1
 32 576 l 1
 32 640 l 1
EndSplineSet
Validated: 1
EndChar

StartChar: Iacute
Encoding: 205 205 93
Width: 384
VWidth: 0
Flags: W
HStem: 0 64<32 128 192 288> 576 64<32 128 192 288>
VStem: 128 64<64 576>
LayerCount: 2
Fore
SplineSet
188 850 m 1
 234 804 l 1
 132 702 l 1
 86 748 l 1
 188 850 l 1
32 640 m 1
 288 640 l 1
 288 576 l 1
 192 576 l 1
 192 64 l 1
 288 64 l 1
 288 0 l 1
 32 0 l 1
 32 64 l 1
 128 64 l 1
 128 576 l 1
 32 576 l 1
 32 640 l 1
EndSplineSet
Validated: 1
EndChar

StartChar: Icircumflex
Encoding: 206 206 94
Width: 384
VWidth: 0
Flags: W
HStem: 0 64<32 128 192 288> 576 64<32 128 192 288>
VStem: 128 64<64 576>
LayerCount: 2
Fore
SplineSet
160 848 m 1
 205 803 l 1
 256 752 l 1
 211 707 l 1
 160 758 l 1
 109 707 l 1
 64 752 l 1
 115 803 l 1
 160 848 l 1
32 640 m 1
 288 640 l 1
 288 576 l 1
 192 576 l 1
 192 64 l 1
 288 64 l 1
 288 0 l 1
 32 0 l 1
 32 64 l 1
 128 64 l 1
 128 576 l 1
 32 576 l 1
 32 640 l 1
EndSplineSet
Validated: 1
EndChar

StartChar: Idieresis
Encoding: 207 207 95
Width: 384
VWidth: 0
Flags: W
HStem: 0 64<32 128 192 288> 576 64<32 128 192 288> 688 96<39.4403 120.56 199.44 280.56>
VStem: 32 96<695.44 776.56> 128 64<64 576> 192 96<695.44 776.56>
LayerCount: 2
Fore
SplineSet
80 784 m 0xf0
 107 784 128 763 128 736 c 0
 128 709 107 688 80 688 c 0
 53 688 32 709 32 736 c 0
 32 763 53 784 80 784 c 0xf0
240 784 m 0
 267 784 288 763 288 736 c 0
 288 709 267 688 240 688 c 0
 213 688 192 709 192 736 c 0xe4
 192 763 213 784 240 784 c 0
32 640 m 1xf0
 288 640 l 1
 288 576 l 1xf4
 192 576 l 1
 192 64 l 1xe8
 288 64 l 1
 288 0 l 1
 32 0 l 1
 32 64 l 1xf4
 128 64 l 1
 128 576 l 1xe8
 32 576 l 1
 32 640 l 1xf0
EndSplineSet
Validated: 1
EndChar

StartChar: Ntilde
Encoding: 209 209 96
Width: 384
VWidth: 0
Flags: W
HStem: 0 21G<0 64 256 320> 620 20G<0 76 256 320> 699 64<187.706 239.953> 773 64<88.2805 132.328>
VStem: 0 70<0 512 730.012 769.714> 256 64<0 192 320 640 768.209 803.09>
LayerCount: 2
Fore
SplineSet
104 837 m 0
 106 837 l 0
 143 837 173 813 189 782 c 0
 194 772 203 763 216 763 c 0
 221 763 226 764 232 767 c 0
 245 774 250 784 250 794 c 0
 250 797 250 800 249 803 c 1
 314 834 l 1
 318 824 320 813 320 801 c 0
 320 766 301 730 260 710 c 0
 244 702 229 699 215 699 c 0
 177 699 146 723 131 754 c 0
 126 764 117 773 104 773 c 0
 99 773 94 772 88 769 c 0
 75 762 70 752 70 742 c 0
 70 739 70 736 71 733 c 1
 6 702 l 1
 2 712 0 723 0 735 c 0
 0 770 19 806 60 826 c 0
 69 831 78 834 87 835 c 0
 92 837 98 837 104 837 c 0
0 640 m 1
 64 640 l 1
 256 320 l 1
 256 640 l 1
 320 640 l 1
 320 0 l 1
 256 0 l 1
 256 192 l 1
 64 512 l 1
 64 0 l 1
 0 0 l 1
 0 640 l 1
EndSplineSet
Validated: 1
EndChar

StartChar: Ograve
Encoding: 210 210 97
Width: 384
VWidth: 0
Flags: W
HStem: -8 72<100.381 219.619> 576 72<100.381 219.619>
VStem: -8 72<106.447 533.553> 256 72<106.447 533.553>
LayerCount: 2
Fore
SplineSet
132 850 m 1
 234 748 l 1
 188 702 l 1
 86 804 l 1
 132 850 l 1
160 648 m 0
 320 648 328 512 328 320 c 0
 328 128 320 -8 160 -8 c 0
 0 -8 -8 128 -8 320 c 0
 -8 512 0 648 160 648 c 0
160 576 m 0
 64 576 64 480 64 320 c 0
 64 160 64 64 160 64 c 0
 256 64 256 160 256 320 c 0
 256 480 256 576 160 576 c 0
EndSplineSet
Validated: 1
EndChar

StartChar: Oacute
Encoding: 211 211 98
Width: 384
VWidth: 0
Flags: W
HStem: -8 72<100.381 219.619> 576 72<100.381 219.619>
VStem: -8 72<106.447 533.553> 256 72<106.447 533.553>
LayerCount: 2
Fore
SplineSet
188 850 m 1
 234 804 l 1
 132 702 l 1
 86 748 l 1
 188 850 l 1
160 648 m 0
 320 648 328 512 328 320 c 0
 328 128 320 -8 160 -8 c 0
 0 -8 -8 128 -8 320 c 0
 -8 512 0 648 160 648 c 0
160 576 m 0
 64 576 64 480 64 320 c 0
 64 160 64 64 160 64 c 0
 256 64 256 160 256 320 c 0
 256 480 256 576 160 576 c 0
EndSplineSet
Validated: 1
EndChar

StartChar: Ocircumflex
Encoding: 212 212 99
Width: 384
VWidth: 0
Flags: W
HStem: -8 72<100.381 219.619> 576 72<100.381 219.619>
VStem: -8 72<106.447 533.553> 256 72<106.447 533.553>
LayerCount: 2
Fore
SplineSet
160 848 m 1
 205 803 l 1
 256 752 l 1
 211 707 l 1
 160 758 l 1
 109 707 l 1
 64 752 l 1
 115 803 l 1
 160 848 l 1
160 648 m 0
 320 648 328 512 328 320 c 0
 328 128 320 -8 160 -8 c 0
 0 -8 -8 128 -8 320 c 0
 -8 512 0 648 160 648 c 0
160 576 m 0
 64 576 64 480 64 320 c 0
 64 160 64 64 160 64 c 0
 256 64 256 160 256 320 c 0
 256 480 256 576 160 576 c 0
EndSplineSet
Validated: 1
EndChar

StartChar: Odieresis
Encoding: 214 214 100
Width: 384
VWidth: 0
Flags: W
LayerCount: 2
Fore
SplineSet
80 784 m 0xe8
 107 784 128 763 128 736 c 0
 128 709 107 688 80 688 c 0
 53 688 32 709 32 736 c 0
 32 763 53 784 80 784 c 0xe8
240 784 m 0
 267 784 288 763 288 736 c 0
 288 709 267 688 240 688 c 0
 213 688 192 709 192 736 c 0xe4
 192 763 213 784 240 784 c 0
160 648 m 0
 320 648 328 512 328 320 c 0
 328 128 320 -8 160 -8 c 0
 0 -8 -8 128 -8 320 c 0xf2
 -8 512 0 648 160 648 c 0
160 576 m 0
 64 576 64 480 64 320 c 0
 64 160 64 64 160 64 c 0
 256 64 256 160 256 320 c 0
 256 480 256 576 160 576 c 0
EndSplineSet
Validated: 1
EndChar

StartChar: Otilde
Encoding: 213 213 101
Width: 384
VWidth: 0
Flags: W
HStem: -8 72<100.381 219.619> 576 72<100.381 219.619> 699 64<187.706 239.953> 773 64<88.2805 132.328>
VStem: -8 72<106.447 533.553> 0 70<730.012 769.714> 250 70<766.286 805.988> 256 72<106.447 533.553>
LayerCount: 2
Fore
SplineSet
104 837 m 0xf6
 106 837 l 0
 143 837 173 813 189 782 c 0
 194 772 203 763 216 763 c 0
 221 763 226 764 232 767 c 0
 245 774 250 784 250 794 c 0
 250 797 250 800 249 803 c 1
 314 834 l 1
 318 824 320 813 320 801 c 0
 320 766 301 730 260 710 c 0
 244 702 229 699 215 699 c 0
 177 699 146 723 131 754 c 0
 126 764 117 773 104 773 c 0
 99 773 94 772 88 769 c 0
 75 762 70 752 70 742 c 0
 70 739 70 736 71 733 c 1
 6 702 l 1
 2 712 0 723 0 735 c 0
 0 770 19 806 60 826 c 0
 69 831 78 834 87 835 c 0
 92 837 98 837 104 837 c 0xf6
160 648 m 0
 320 648 328 512 328 320 c 0
 328 128 320 -8 160 -8 c 0
 0 -8 -8 128 -8 320 c 0xf9
 -8 512 0 648 160 648 c 0
160 576 m 0
 64 576 64 480 64 320 c 0
 64 160 64 64 160 64 c 0
 256 64 256 160 256 320 c 0
 256 480 256 576 160 576 c 0
EndSplineSet
Validated: 1
EndChar

StartChar: Ugrave
Encoding: 217 217 102
Width: 384
VWidth: 0
Flags: W
HStem: -8 72<101.334 218.666> 620 20G<0 64 256 320>
VStem: 0 64<106.855 640> 256 64<106.855 640>
LayerCount: 2
Fore
SplineSet
132 850 m 1
 234 748 l 1
 188 702 l 1
 86 804 l 1
 132 850 l 1
0 640 m 1
 64 640 l 1
 64 320 l 2
 64 295 63 269 63 243 c 0
 63 151 73 64 160 64 c 0
 247 64 257 151 257 243 c 0
 257 269 256 295 256 320 c 2
 256 640 l 1
 320 640 l 1
 320 320 l 2
 320 128 320 -8 160 -8 c 0
 0 -8 0 128 0 320 c 2
 0 640 l 1
EndSplineSet
Validated: 1
EndChar

StartChar: Uacute
Encoding: 218 218 103
Width: 384
VWidth: 0
Flags: W
HStem: -8 72<101.334 218.666> 620 20G<0 64 256 320>
VStem: 0 64<106.855 640> 256 64<106.855 640>
LayerCount: 2
Fore
SplineSet
188 850 m 1
 234 804 l 1
 132 702 l 1
 86 748 l 1
 188 850 l 1
0 640 m 1
 64 640 l 1
 64 320 l 2
 64 295 63 269 63 243 c 0
 63 151 73 64 160 64 c 0
 247 64 257 151 257 243 c 0
 257 269 256 295 256 320 c 2
 256 640 l 1
 320 640 l 1
 320 320 l 2
 320 128 320 -8 160 -8 c 0
 0 -8 0 128 0 320 c 2
 0 640 l 1
EndSplineSet
Validated: 1
EndChar

StartChar: Ucircumflex
Encoding: 219 219 104
Width: 384
VWidth: 0
Flags: W
HStem: -8 72<101.334 218.666> 620 20G<0 64 256 320>
VStem: 0 64<106.855 640> 256 64<106.855 640>
LayerCount: 2
Fore
SplineSet
160 848 m 1
 205 803 l 1
 256 752 l 1
 211 707 l 1
 160 758 l 1
 109 707 l 1
 64 752 l 1
 115 803 l 1
 160 848 l 1
0 640 m 1
 64 640 l 1
 64 320 l 2
 64 295 63 269 63 243 c 0
 63 151 73 64 160 64 c 0
 247 64 257 151 257 243 c 0
 257 269 256 295 256 320 c 2
 256 640 l 1
 320 640 l 1
 320 320 l 2
 320 128 320 -8 160 -8 c 0
 0 -8 0 128 0 320 c 2
 0 640 l 1
EndSplineSet
Validated: 1
EndChar

StartChar: Udieresis
Encoding: 220 220 105
Width: 384
VWidth: 0
Flags: W
HStem: -8 72<101.334 218.666> 620 20G<0 64 256 320> 688 96<39.4403 120.56 199.44 280.56>
VStem: 0 64<106.855 640> 32 96<695.44 776.56> 192 96<695.44 776.56> 256 64<106.855 640>
LayerCount: 2
Fore
SplineSet
0 320 m 2xf2
 0 640 l 1
 64 640 l 1
 64 320 l 2
 64 295 63 269 63 243 c 0
 63 151 73 64 160 64 c 0
 247 64 257 151 257 243 c 0
 257 269 256 295 256 320 c 2
 256 640 l 1
 320 640 l 1
 320 320 l 2
 320 128 320 -8 160 -8 c 0
 0 -8 0 128 0 320 c 2xf2
80 784 m 0
 107 784 128 763 128 736 c 0
 128 709 107 688 80 688 c 0
 53 688 32 709 32 736 c 0xe8
 32 763 53 784 80 784 c 0
240 784 m 0
 267 784 288 763 288 736 c 0
 288 709 267 688 240 688 c 0
 213 688 192 709 192 736 c 0xe4
 192 763 213 784 240 784 c 0
EndSplineSet
Validated: 1
EndChar

StartChar: Yacute
Encoding: 221 221 106
Width: 384
VWidth: 0
Flags: W
HStem: 0 21G<128 192> 620 20G<0 64 256 320>
VStem: 0 64<483.823 640> 128 64<0 296.695> 256 64<483.823 640>
CounterMasks: 1 38
LayerCount: 2
Fore
SplineSet
188 850 m 1
 234 804 l 1
 132 702 l 1
 86 748 l 1
 188 850 l 1
0 640 m 1
 64 640 l 1
 64 576 l 2
 64 503 119 412 160 330 c 1
 201 412 256 503 256 576 c 2
 256 640 l 1
 320 640 l 1
 320 576 l 2
 320 480 224 320 192 256 c 1
 192 0 l 1
 128 0 l 1
 128 256 l 1
 96 320 0 480 0 576 c 2
 0 640 l 1
EndSplineSet
Validated: 1
EndChar

StartChar: agrave
Encoding: 224 224 107
Width: 384
VWidth: 0
Flags: W
HStem: -8 72<76.2412 247.61> 0 21G<256 320> 200 64<80.0822 255.933> 384 72<84.6663 229.802>
VStem: -8 72<78.0558 182.37> 256 64<0 19 75.3049 216 266.472 354.75>
LayerCount: 2
Fore
SplineSet
132 658 m 1x3c
 234 556 l 1
 188 510 l 1
 86 612 l 1
 132 658 l 1x3c
160 456 m 0
 256 456 320 384 320 288 c 2
 320 128 l 1
 320 0 l 1
 256 0 l 1x7c
 256 19 l 1
 226 0 181 -8 152 -8 c 0xbc
 88 -8 -8 8 -8 128 c 0
 -8 248 96 264 152 264 c 0
 240 264 256 264 256 288 c 0
 256 352 224 384 160 384 c 0
 131 384 108 377 92 364 c 1
 35 397 l 1
 63 434 107 456 160 456 c 0
256 216 m 2
 256 202 233 199 206 199 c 0
 188 199 168 200 152 200 c 0
 80 200 64 168 64 128 c 0
 64 80 88 64 152 64 c 0xbc
 184 64 256 64 256 104 c 2
 256 216 l 2
EndSplineSet
Validated: 1
EndChar

StartChar: aacute
Encoding: 225 225 108
Width: 384
VWidth: 0
Flags: W
HStem: -8 72<76.2412 247.61> 0 21G<256 320> 200 64<80.0822 255.933> 384 72<84.6663 229.802>
VStem: -8 72<78.0558 182.37> 256 64<0 19 75.3049 216 266.472 354.75>
LayerCount: 2
Fore
SplineSet
188 658 m 1x3c
 234 612 l 1
 132 510 l 1
 86 556 l 1
 188 658 l 1x3c
160 456 m 0
 256 456 320 384 320 288 c 2
 320 128 l 1
 320 0 l 1
 256 0 l 1x7c
 256 19 l 1
 226 0 181 -8 152 -8 c 0xbc
 88 -8 -8 8 -8 128 c 0
 -8 248 96 264 152 264 c 0
 240 264 256 264 256 288 c 0
 256 352 224 384 160 384 c 0
 131 384 108 377 92 364 c 1
 35 397 l 1
 63 434 107 456 160 456 c 0
256 216 m 2
 256 202 233 199 206 199 c 0
 188 199 168 200 152 200 c 0
 80 200 64 168 64 128 c 0
 64 80 88 64 152 64 c 0xbc
 184 64 256 64 256 104 c 2
 256 216 l 2
EndSplineSet
Validated: 1
EndChar

StartChar: acircumflex
Encoding: 226 226 109
Width: 384
VWidth: 0
Flags: W
HStem: -8 72<76.2412 247.61> 0 21G<256 320> 200 64<80.0822 255.933> 384 72<84.6663 229.802>
VStem: -8 72<78.0558 182.37> 256 64<0 19 75.3049 216 266.472 354.75>
LayerCount: 2
Fore
SplineSet
160 656 m 1x3c
 205 611 l 1
 256 560 l 1
 211 515 l 1
 160 566 l 1
 109 515 l 1
 64 560 l 1
 115 611 l 1
 160 656 l 1x3c
160 456 m 0
 256 456 320 384 320 288 c 2
 320 128 l 1
 320 0 l 1
 256 0 l 1x7c
 256 19 l 1
 226 0 181 -8 152 -8 c 0xbc
 88 -8 -8 8 -8 128 c 0
 -8 248 96 264 152 264 c 0
 240 264 256 264 256 288 c 0
 256 352 224 384 160 384 c 0
 131 384 108 377 92 364 c 1
 35 397 l 1
 63 434 107 456 160 456 c 0
256 216 m 2
 256 202 233 199 206 199 c 0
 188 199 168 200 152 200 c 0
 80 200 64 168 64 128 c 0
 64 80 88 64 152 64 c 0xbc
 184 64 256 64 256 104 c 2
 256 216 l 2
EndSplineSet
Validated: 1
EndChar

StartChar: atilde
Encoding: 227 227 110
Width: 384
VWidth: 0
Flags: W
HStem: -8 72<76.2412 247.61> 0 21G<256 320> 200 64<80.0822 255.933> 384 72<84.6663 229.802> 507 64<187.706 239.953> 581 64<88.2805 132.328>
VStem: -8 72<78.0558 182.37> 0 70<538.012 577.714> 256 64<0 19 75.3049 216 266.472 354.75 576.209 611.09>
LayerCount: 2
Fore
SplineSet
104 645 m 0x3d80
 106 645 l 0
 143 645 173 621 189 590 c 0
 194 580 203 571 216 571 c 0
 221 571 226 572 232 575 c 0
 245 582 250 592 250 602 c 0
 250 605 250 608 249 611 c 1
 314 642 l 1
 318 632 320 621 320 609 c 0
 320 574 301 538 260 518 c 0
 244 510 229 507 215 507 c 0
 177 507 146 531 131 562 c 0
 126 572 117 581 104 581 c 0
 99 581 94 580 88 577 c 0
 75 570 70 560 70 550 c 0
 70 547 70 544 71 541 c 1
 6 510 l 1
 2 520 0 531 0 543 c 0
 0 578 19 614 60 634 c 0
 69 639 78 642 87 643 c 0
 92 645 98 645 104 645 c 0x3d80
160 456 m 0
 256 456 320 384 320 288 c 2
 320 128 l 1
 320 0 l 1
 256 0 l 1x7e80
 256 19 l 1
 226 0 181 -8 152 -8 c 0
 88 -8 -8 8 -8 128 c 0xbe80
 -8 248 96 264 152 264 c 0
 240 264 256 264 256 288 c 0
 256 352 224 384 160 384 c 0
 131 384 108 377 92 364 c 1
 35 397 l 1
 63 434 107 456 160 456 c 0
256 216 m 2
 256 202 233 199 206 199 c 0
 188 199 168 200 152 200 c 0
 80 200 64 168 64 128 c 0
 64 80 88 64 152 64 c 0xbe80
 184 64 256 64 256 104 c 2
 256 216 l 2
EndSplineSet
Validated: 1
EndChar

StartChar: adieresis
Encoding: 228 228 111
Width: 384
VWidth: 0
Flags: W
HStem: -8 72<76.2412 247.61> 0 21G<256 320> 200 64<80.0822 255.933> 384 72<84.6663 229.802> 496 96<39.4403 120.56 199.44 280.56>
VStem: -8 72<78.0558 182.37> 32 96<503.44 584.56> 192 96<503.44 584.56> 256 64<0 19 75.3049 216 266.472 354.75>
LayerCount: 2
Fore
SplineSet
80 592 m 0x3a
 107 592 128 571 128 544 c 0
 128 517 107 496 80 496 c 0
 53 496 32 517 32 544 c 0
 32 571 53 592 80 592 c 0x3a
240 592 m 0
 267 592 288 571 288 544 c 0
 288 517 267 496 240 496 c 0
 213 496 192 517 192 544 c 0x39
 192 571 213 592 240 592 c 0
160 456 m 0
 256 456 320 384 320 288 c 2
 320 128 l 1
 320 0 l 1
 256 0 l 1x7c80
 256 19 l 1
 226 0 181 -8 152 -8 c 0
 88 -8 -8 8 -8 128 c 0
 -8 248 96 264 152 264 c 0
 240 264 256 264 256 288 c 0xbc80
 256 352 224 384 160 384 c 0
 131 384 108 377 92 364 c 1
 35 397 l 1
 63 434 107 456 160 456 c 0
256 216 m 2
 256 202 233 199 206 199 c 0
 188 199 168 200 152 200 c 0
 80 200 64 168 64 128 c 0
 64 80 88 64 152 64 c 0xbc80
 184 64 256 64 256 104 c 2
 256 216 l 2
EndSplineSet
Validated: 1
EndChar

StartChar: ccedilla
Encoding: 231 231 112
Width: 384
VWidth: 0
Flags: W
HStem: -160 72<80.312 172.094> -8 72<96.3045 172.737> 384 72<96.0801 225.071>
VStem: -8 72<96.2848 350.568> 176 64<-82.0914 -8.3681> 250 66<89.095 118.955 329.045 357.617>
LayerCount: 2
Fore
SplineSet
160 456 m 0
 249 456 296 405 316 331 c 1
 250 313 l 1
 241 354 218 384 160 384 c 0
 64 384 64 304 64 224 c 0
 64 144 64 64 160 64 c 0
 218 64 241 94 250 135 c 1
 316 117 l 1
 302 64 274 24 228 4 c 1
 236 -11 240 -29 240 -48 c 0
 240 -104 192 -160 112 -160 c 0
 89 -160 69 -155 52 -146 c 1
 87 -87 l 1
 94 -88 102 -88 112 -88 c 0
 152 -88 176 -80 176 -48 c 0
 176 -24 160 -8 152 -8 c 1
 30 -4 -8 99 -8 224 c 0
 -8 352 32 456 160 456 c 0
EndSplineSet
Validated: 1
EndChar

StartChar: egrave
Encoding: 232 232 113
Width: 384
VWidth: 0
Flags: W
HStem: -8 72<96.2265 225.051> 192 64<64 256> 384 72<96.2265 223.774>
VStem: -8 72<99.0119 192 256 348.988> 256 72<256 348.988>
CounterMasks: 1 e0
LayerCount: 2
Fore
SplineSet
132 658 m 1
 234 556 l 1
 188 510 l 1
 86 612 l 1
 132 658 l 1
160 456 m 0
 288 456 328 352 328 224 c 0
 328 213 328 202 327 192 c 1
 312 192 l 1
 256 192 l 1
 64 192 l 1
 66 124 77 64 160 64 c 0
 204 64 228 81 241 107 c 1
 307 90 l 1
 283 31 238 -8 160 -8 c 0
 32 -8 -8 96 -8 224 c 0
 -8 352 32 456 160 456 c 0
160 384 m 0
 77 384 66 324 64 256 c 1
 256 256 l 1
 254 324 243 384 160 384 c 0
EndSplineSet
Validated: 1
EndChar

StartChar: eacute
Encoding: 233 233 114
Width: 384
VWidth: 0
Flags: W
HStem: -8 72<96.2265 225.051> 192 64<64 256> 384 72<96.2265 223.774>
VStem: -8 72<99.0119 192 256 348.988> 256 72<256 348.988>
CounterMasks: 1 e0
LayerCount: 2
Fore
SplineSet
188 658 m 1
 234 612 l 1
 132 510 l 1
 86 556 l 1
 188 658 l 1
160 456 m 0
 288 456 328 352 328 224 c 0
 328 213 328 202 327 192 c 1
 312 192 l 1
 256 192 l 1
 64 192 l 1
 66 124 77 64 160 64 c 0
 204 64 228 81 241 107 c 1
 307 90 l 1
 283 31 238 -8 160 -8 c 0
 32 -8 -8 96 -8 224 c 0
 -8 352 32 456 160 456 c 0
160 384 m 0
 77 384 66 324 64 256 c 1
 256 256 l 1
 254 324 243 384 160 384 c 0
EndSplineSet
Validated: 1
EndChar

StartChar: ecircumflex
Encoding: 234 234 115
Width: 384
VWidth: 0
Flags: W
HStem: -8 72<96.2265 225.051> 192 64<64 256> 384 72<96.2265 223.774>
VStem: -8 72<99.0119 192 256 348.988> 256 72<256 348.988>
CounterMasks: 1 e0
LayerCount: 2
Fore
SplineSet
160 656 m 1
 205 611 l 1
 256 560 l 1
 211 515 l 1
 160 566 l 1
 109 515 l 1
 64 560 l 1
 115 611 l 1
 160 656 l 1
160 456 m 0
 288 456 328 352 328 224 c 0
 328 213 328 202 327 192 c 1
 312 192 l 1
 256 192 l 1
 64 192 l 1
 66 124 77 64 160 64 c 0
 204 64 228 81 241 107 c 1
 307 90 l 1
 283 31 238 -8 160 -8 c 0
 32 -8 -8 96 -8 224 c 0
 -8 352 32 456 160 456 c 0
160 384 m 0
 77 384 66 324 64 256 c 1
 256 256 l 1
 254 324 243 384 160 384 c 0
EndSplineSet
Validated: 1
EndChar

StartChar: edieresis
Encoding: 235 235 116
Width: 384
VWidth: 0
Flags: W
HStem: -8 72<96.2265 225.051> 192 64<64 256> 384 72<96.2265 223.774> 496 96<39.4403 120.56 199.44 280.56>
VStem: -8 72<99.0119 192 256 348.988> 32 96<503.44 584.56> 192 96<503.44 584.56> 256 72<256 348.988>
LayerCount: 2
Fore
SplineSet
80 592 m 0xf4
 107 592 128 571 128 544 c 0
 128 517 107 496 80 496 c 0
 53 496 32 517 32 544 c 0
 32 571 53 592 80 592 c 0xf4
240 592 m 0
 267 592 288 571 288 544 c 0
 288 517 267 496 240 496 c 0
 213 496 192 517 192 544 c 0xf2
 192 571 213 592 240 592 c 0
160 456 m 0
 288 456 328 352 328 224 c 0
 328 213 328 202 327 192 c 1
 312 192 l 1
 256 192 l 1
 64 192 l 1
 66 124 77 64 160 64 c 0
 204 64 228 81 241 107 c 1
 307 90 l 1
 283 31 238 -8 160 -8 c 0
 32 -8 -8 96 -8 224 c 0xf9
 -8 352 32 456 160 456 c 0
160 384 m 0
 77 384 66 324 64 256 c 1
 256 256 l 1
 254 324 243 384 160 384 c 0
EndSplineSet
Validated: 1
EndChar

StartChar: igrave
Encoding: 236 236 117
Width: 384
VWidth: 0
Flags: W
HStem: 0 64<32 128 192 288> 384 64<64 128>
VStem: 64 128<384 448> 128 64<64 384>
LayerCount: 2
Fore
SplineSet
132 658 m 1xc0
 234 556 l 1
 188 510 l 1
 86 612 l 1
 132 658 l 1xc0
64 448 m 1xe0
 128 448 l 1xd0
 192 448 l 1
 192 384 l 1xe0
 192 64 l 1
 288 64 l 1
 288 0 l 1
 192 0 l 1
 128 0 l 1
 32 0 l 1
 32 64 l 1
 128 64 l 1
 128 384 l 1xd0
 64 384 l 1
 64 448 l 1xe0
EndSplineSet
Validated: 1
EndChar

StartChar: iacute
Encoding: 237 237 118
Width: 384
VWidth: 0
Flags: W
HStem: 0 64<32 128 192 288> 384 64<64 128>
VStem: 64 128<384 448> 128 64<64 384>
LayerCount: 2
Fore
SplineSet
188 658 m 1xc0
 234 612 l 1
 132 510 l 1
 86 556 l 1
 188 658 l 1xc0
64 448 m 1xe0
 128 448 l 1xd0
 192 448 l 1
 192 384 l 1xe0
 192 64 l 1
 288 64 l 1
 288 0 l 1
 192 0 l 1
 128 0 l 1
 32 0 l 1
 32 64 l 1
 128 64 l 1
 128 384 l 1xd0
 64 384 l 1
 64 448 l 1xe0
EndSplineSet
Validated: 1
EndChar

StartChar: icircumflex
Encoding: 238 238 119
Width: 384
VWidth: 0
Flags: W
HStem: 0 64<32 128 192 288> 384 64<64 128>
VStem: 64 128<384 448> 128 64<64 384>
LayerCount: 2
Fore
SplineSet
160 656 m 1xe0
 205 611 l 1
 256 560 l 1
 211 515 l 1
 160 566 l 1
 109 515 l 1
 64 560 l 1
 115 611 l 1
 160 656 l 1xe0
64 448 m 1
 128 448 l 1xd0
 192 448 l 1
 192 384 l 1xe0
 192 64 l 1
 288 64 l 1
 288 0 l 1
 192 0 l 1
 128 0 l 1
 32 0 l 1
 32 64 l 1
 128 64 l 1
 128 384 l 1xd0
 64 384 l 1
 64 448 l 1
EndSplineSet
Validated: 1
EndChar

StartChar: idieresis
Encoding: 239 239 120
Width: 384
VWidth: 0
Flags: W
HStem: 0 64<32 128 192 288> 384 64<64 128> 496 96<39.4403 120.56 199.44 280.56>
VStem: 32 96<503.44 584.56> 64 128<384 448> 128 64<64 384> 192 96<503.44 584.56>
LayerCount: 2
Fore
SplineSet
80 592 m 0xf0
 107 592 128 571 128 544 c 0
 128 517 107 496 80 496 c 0
 53 496 32 517 32 544 c 0
 32 571 53 592 80 592 c 0xf0
240 592 m 0
 267 592 288 571 288 544 c 0
 288 517 267 496 240 496 c 0
 213 496 192 517 192 544 c 0xe2
 192 571 213 592 240 592 c 0
64 448 m 1xe8
 128 448 l 1xe4
 192 448 l 1
 192 384 l 1xe8
 192 64 l 1xe4
 288 64 l 1
 288 0 l 1
 192 0 l 1xe2
 128 0 l 1xe4
 32 0 l 1
 32 64 l 1xf0
 128 64 l 1
 128 384 l 1xe4
 64 384 l 1
 64 448 l 1xe8
EndSplineSet
Validated: 1
EndChar

StartChar: ntilde
Encoding: 241 241 121
Width: 384
VWidth: 0
Flags: W
HStem: 0 21G<0 64 256 320> 384 72<106.312 214.938> 428 20G<0 64> 507 64<187.706 239.953> 581 64<88.2805 132.328>
VStem: 0 64<0 335.092 413 448 540.91 575.791> 250 70<0 345.108 574.286 613.988>
LayerCount: 2
Fore
SplineSet
104 645 m 0x9e
 106 645 l 0
 143 645 173 621 189 590 c 0
 194 580 203 571 216 571 c 0
 221 571 226 572 232 575 c 0
 245 582 250 592 250 602 c 0
 250 605 250 608 249 611 c 1
 314 642 l 1
 318 632 320 621 320 609 c 0
 320 574 301 538 260 518 c 0
 244 510 229 507 215 507 c 0
 177 507 146 531 131 562 c 0
 126 572 117 581 104 581 c 0
 99 581 94 580 88 577 c 0
 75 570 70 560 70 550 c 0
 70 547 70 544 71 541 c 1
 6 510 l 1
 2 520 0 531 0 543 c 0
 0 578 19 614 60 634 c 0
 69 639 78 642 87 643 c 0
 92 645 98 645 104 645 c 0x9e
160 456 m 0xde
 240 456 320 416 320 224 c 2
 320 0 l 1
 256 0 l 1
 256 224 l 2
 256 320 224 384 160 384 c 0xde
 80 384 64 283 64 224 c 2
 64 0 l 1
 0 0 l 1
 0 224 l 1
 0 448 l 1
 64 448 l 1xbe
 64 413 l 1
 90 440 122 456 160 456 c 0xde
EndSplineSet
Validated: 1
EndChar

StartChar: ograve
Encoding: 242 242 122
Width: 384
VWidth: 0
Flags: W
HStem: -8 72<96.0801 223.92> 384 72<96.0801 223.92>
VStem: -8 72<97.4323 350.568> 256 72<97.4323 350.568>
LayerCount: 2
Fore
SplineSet
132 658 m 1
 234 556 l 1
 188 510 l 1
 86 612 l 1
 132 658 l 1
160 456 m 0
 288 456 328 352 328 224 c 0
 328 96 288 -8 160 -8 c 0
 32 -8 -8 96 -8 224 c 0
 -8 352 32 456 160 456 c 0
160 384 m 0
 64 384 64 304 64 224 c 0
 64 144 64 64 160 64 c 0
 256 64 256 144 256 224 c 0
 256 304 256 384 160 384 c 0
EndSplineSet
Validated: 1
EndChar

StartChar: oacute
Encoding: 243 243 123
Width: 384
VWidth: 0
Flags: W
HStem: -8 72<96.0801 223.92> 384 72<96.0801 223.92>
VStem: -8 72<97.4323 350.568> 256 72<97.4323 350.568>
LayerCount: 2
Fore
SplineSet
188 658 m 1
 234 612 l 1
 132 510 l 1
 86 556 l 1
 188 658 l 1
160 456 m 0
 288 456 328 352 328 224 c 0
 328 96 288 -8 160 -8 c 0
 32 -8 -8 96 -8 224 c 0
 -8 352 32 456 160 456 c 0
160 384 m 0
 64 384 64 304 64 224 c 0
 64 144 64 64 160 64 c 0
 256 64 256 144 256 224 c 0
 256 304 256 384 160 384 c 0
EndSplineSet
Validated: 1
EndChar

StartChar: ocircumflex
Encoding: 244 244 124
Width: 384
VWidth: 0
Flags: W
HStem: -8 72<96.0801 223.92> 384 72<96.0801 223.92>
VStem: -8 72<97.4323 350.568> 256 72<97.4323 350.568>
LayerCount: 2
Fore
SplineSet
160 656 m 1
 205 611 l 1
 256 560 l 1
 211 515 l 1
 160 566 l 1
 109 515 l 1
 64 560 l 1
 115 611 l 1
 160 656 l 1
160 456 m 0
 288 456 328 352 328 224 c 0
 328 96 288 -8 160 -8 c 0
 32 -8 -8 96 -8 224 c 0
 -8 352 32 456 160 456 c 0
160 384 m 0
 64 384 64 304 64 224 c 0
 64 144 64 64 160 64 c 0
 256 64 256 144 256 224 c 0
 256 304 256 384 160 384 c 0
EndSplineSet
Validated: 1
EndChar

StartChar: otilde
Encoding: 245 245 125
Width: 384
VWidth: 0
Flags: W
HStem: -8 72<96.0801 223.92> 384 72<96.0801 223.92> 507 64<187.706 239.953> 581 64<88.2805 132.328>
VStem: -8 72<97.4323 350.568> 0 70<538.012 577.714> 250 70<574.286 613.988> 256 72<97.4323 350.568>
LayerCount: 2
Fore
SplineSet
104 645 m 0xf6
 106 645 l 0
 143 645 173 621 189 590 c 0
 194 580 203 571 216 571 c 0
 221 571 226 572 232 575 c 0
 245 582 250 592 250 602 c 0
 250 605 250 608 249 611 c 1
 314 642 l 1
 318 632 320 621 320 609 c 0
 320 574 301 538 260 518 c 0
 244 510 229 507 215 507 c 0
 177 507 146 531 131 562 c 0
 126 572 117 581 104 581 c 0
 99 581 94 580 88 577 c 0
 75 570 70 560 70 550 c 0
 70 547 70 544 71 541 c 1
 6 510 l 1
 2 520 0 531 0 543 c 0
 0 578 19 614 60 634 c 0
 69 639 78 642 87 643 c 0
 92 645 98 645 104 645 c 0xf6
160 456 m 0
 288 456 328 352 328 224 c 0
 328 96 288 -8 160 -8 c 0
 32 -8 -8 96 -8 224 c 0xf9
 -8 352 32 456 160 456 c 0
160 384 m 0
 64 384 64 304 64 224 c 0
 64 144 64 64 160 64 c 0
 256 64 256 144 256 224 c 0
 256 304 256 384 160 384 c 0
EndSplineSet
Validated: 1
EndChar

StartChar: odieresis
Encoding: 246 246 126
Width: 384
VWidth: 0
Flags: W
HStem: -8 72<96.0801 223.92> 384 72<96.0801 223.92> 496 96<39.4403 120.56 199.44 280.56>
VStem: -8 72<97.4323 350.568> 32 96<503.44 584.56> 192 96<503.44 584.56> 256 72<97.4323 350.568>
LayerCount: 2
Fore
SplineSet
80 592 m 0xe8
 107 592 128 571 128 544 c 0
 128 517 107 496 80 496 c 0
 53 496 32 517 32 544 c 0
 32 571 53 592 80 592 c 0xe8
240 592 m 0
 267 592 288 571 288 544 c 0
 288 517 267 496 240 496 c 0
 213 496 192 517 192 544 c 0xe4
 192 571 213 592 240 592 c 0
160 456 m 0
 288 456 328 352 328 224 c 0
 328 96 288 -8 160 -8 c 0
 32 -8 -8 96 -8 224 c 0xf2
 -8 352 32 456 160 456 c 0
160 384 m 0
 64 384 64 304 64 224 c 0
 64 144 64 64 160 64 c 0
 256 64 256 144 256 224 c 0
 256 304 256 384 160 384 c 0
EndSplineSet
Validated: 1
EndChar

StartChar: ugrave
Encoding: 249 249 127
Width: 384
VWidth: 0
Flags: W
HStem: -8 72<105.062 213.688> 0 21G<256 320> 428 20G<0 64 256 320>
VStem: 0 64<112.607 448> 256 64<0 35 112.908 448>
LayerCount: 2
Fore
SplineSet
132 658 m 1x38
 234 556 l 1
 188 510 l 1
 86 612 l 1
 132 658 l 1x38
0 448 m 1
 64 448 l 1
 64 224 l 2
 64 128 96 64 160 64 c 0xb8
 240 64 256 165 256 224 c 2
 256 448 l 1
 320 448 l 1
 320 224 l 1
 320 0 l 1
 256 0 l 1x78
 256 35 l 1
 230 8 198 -8 160 -8 c 0xb8
 80 -8 0 32 0 224 c 2
 0 448 l 1
EndSplineSet
Validated: 1
EndChar

StartChar: uacute
Encoding: 250 250 128
Width: 384
VWidth: 0
Flags: W
HStem: -8 72<105.062 213.688> 0 21G<256 320> 428 20G<0 64 256 320>
VStem: 0 64<112.607 448> 256 64<0 35 112.908 448>
LayerCount: 2
Fore
SplineSet
188 658 m 1x38
 234 612 l 1
 132 510 l 1
 86 556 l 1
 188 658 l 1x38
0 448 m 1
 64 448 l 1
 64 224 l 2
 64 128 96 64 160 64 c 0xb8
 240 64 256 165 256 224 c 2
 256 448 l 1
 320 448 l 1
 320 224 l 1
 320 0 l 1
 256 0 l 1x78
 256 35 l 1
 230 8 198 -8 160 -8 c 0xb8
 80 -8 0 32 0 224 c 2
 0 448 l 1
EndSplineSet
Validated: 1
EndChar

StartChar: ucircumflex
Encoding: 251 251 129
Width: 384
VWidth: 0
Flags: W
HStem: -8 72<105.062 213.688> 0 21G<256 320> 428 20G<0 64 256 320>
VStem: 0 64<112.607 448> 256 64<0 35 112.908 448>
LayerCount: 2
Fore
SplineSet
160 656 m 1x38
 205 611 l 1
 256 560 l 1
 211 515 l 1
 160 566 l 1
 109 515 l 1
 64 560 l 1
 115 611 l 1
 160 656 l 1x38
0 448 m 1
 64 448 l 1
 64 224 l 2
 64 128 96 64 160 64 c 0xb8
 240 64 256 165 256 224 c 2
 256 448 l 1
 320 448 l 1
 320 224 l 1
 320 0 l 1
 256 0 l 1x78
 256 35 l 1
 230 8 198 -8 160 -8 c 0xb8
 80 -8 0 32 0 224 c 2
 0 448 l 1
EndSplineSet
Validated: 1
EndChar

StartChar: udieresis
Encoding: 252 252 130
Width: 384
VWidth: 0
Flags: W
HStem: -8 72<105.062 213.688> 0 21G<256 320> 428 20G<0 64 256 320> 496 96<39.4403 120.56 199.44 280.56>
VStem: 0 64<112.607 448> 32 96<503.44 584.56> 192 96<503.44 584.56> 256 64<0 35 112.908 448>
LayerCount: 2
Fore
SplineSet
80 592 m 0x34
 107 592 128 571 128 544 c 0
 128 517 107 496 80 496 c 0
 53 496 32 517 32 544 c 0
 32 571 53 592 80 592 c 0x34
240 592 m 0
 267 592 288 571 288 544 c 0
 288 517 267 496 240 496 c 0
 213 496 192 517 192 544 c 0x32
 192 571 213 592 240 592 c 0
0 448 m 1xb9
 64 448 l 1
 64 224 l 2
 64 128 96 64 160 64 c 0xb9
 240 64 256 165 256 224 c 2
 256 448 l 1
 320 448 l 1
 320 224 l 1
 320 0 l 1
 256 0 l 1x79
 256 35 l 1
 230 8 198 -8 160 -8 c 0
 80 -8 0 32 0 224 c 2
 0 448 l 1xb9
EndSplineSet
Validated: 1
EndChar

StartChar: yacute
Encoding: 253 253 131
Width: 384
VWidth: 0
Flags: W
HStem: -200 72<94.6477 226.139> -8 72<94.8477 225.884> 428 20G<0 64 256 320>
VStem: 0 64<-96.5093 -73.1301 95.8527 448> 256 64<-94.355 32 94.7727 448>
LayerCount: 2
Fore
SplineSet
188 658 m 1
 234 612 l 1
 132 510 l 1
 86 556 l 1
 188 658 l 1
0 448 m 1
 64 448 l 1
 64 224 l 2
 64 144 64 64 160 64 c 0
 240 64 256 120 256 192 c 2
 256 448 l 1
 320 448 l 1
 320 0 l 2
 320 -128 288 -200 160 -200 c 0
 60 -200 18 -156 5 -75 c 1
 69 -57 l 1
 81 -109 111 -128 160 -128 c 0
 224 -128 256 -96 256 0 c 2
 256 32 l 1
 224 0 200 -8 160 -8 c 0
 64 -8 0 56 0 224 c 2
 0 448 l 1
EndSplineSet
Validated: 1
EndChar

StartChar: ydieresis
Encoding: 255 255 132
Width: 384
VWidth: 0
Flags: W
HStem: -200 72<94.6477 226.139> -8 72<94.8477 225.884> 428 20G<0 64 256 320> 496 96<39.4403 120.56 199.44 280.56>
VStem: 0 64<-96.5093 -73.1301 95.8527 448> 32 96<503.44 584.56> 192 96<503.44 584.56> 256 64<-94.355 32 94.7727 448>
LayerCount: 2
Fore
SplineSet
80 592 m 0xf4
 107 592 128 571 128 544 c 0
 128 517 107 496 80 496 c 0
 53 496 32 517 32 544 c 0
 32 571 53 592 80 592 c 0xf4
240 592 m 0
 267 592 288 571 288 544 c 0
 288 517 267 496 240 496 c 0
 213 496 192 517 192 544 c 0xf2
 192 571 213 592 240 592 c 0
0 448 m 1xf9
 64 448 l 1
 64 224 l 2
 64 144 64 64 160 64 c 0
 240 64 256 120 256 192 c 2
 256 448 l 1
 320 448 l 1
 320 0 l 2
 320 -128 288 -200 160 -200 c 0
 60 -200 18 -156 5 -75 c 1
 69 -57 l 1
 81 -109 111 -128 160 -128 c 0
 224 -128 256 -96 256 0 c 2
 256 32 l 1
 224 0 200 -8 160 -8 c 0
 64 -8 0 56 0 224 c 2
 0 448 l 1xf9
EndSplineSet
Validated: 1
EndChar

StartChar: question
Encoding: 63 63 134
Width: 384
VWidth: 0
Flags: W
HStem: -8 112<115.104 204.896> 576 72<85.1055 236.203>
VStem: -8 72<480 553.801> 104 112<3.10403 92.896> 128 64<184 340.5> 256 72<425.957 555.447>
LayerCount: 2
Fore
SplineSet
160 648 m 0xec
 288 648 328 576 328 480 c 0
 328 352 192 384 192 288 c 2
 192 184 l 1
 128 184 l 1
 128 288 l 2
 128 416 256 384 256 480 c 0
 256 560 224 576 160 576 c 0
 96 576 64 560 64 480 c 1
 -8 480 l 1
 -8 575 48 648 160 648 c 0xec
160 104 m 0
 191 104 216 79 216 48 c 0
 216 17 191 -8 160 -8 c 0
 129 -8 104 17 104 48 c 0xf4
 104 79 129 104 160 104 c 0
EndSplineSet
Validated: 1
EndChar

StartChar: exclam
Encoding: 33 33 135
Width: 384
VWidth: 0
Flags: W
HStem: -8 112<115.104 204.896> 620 20G<112 208>
VStem: 104 112<3.10403 92.896> 112 96<373.631 640>
LayerCount: 2
Fore
SplineSet
112 640 m 1xd0
 208 640 l 1
 208 512 208 312 192 184 c 1
 128 184 l 1
 112 312 112 512 112 640 c 1xd0
160 104 m 0
 191 104 216 79 216 48 c 0
 216 17 191 -8 160 -8 c 0
 129 -8 104 17 104 48 c 0xe0
 104 79 129 104 160 104 c 0
EndSplineSet
Validated: 1
EndChar

StartChar: numbersign
Encoding: 35 35 136
Width: 384
VWidth: 0
Flags: W
HStem: 0 21G<16 90.25 160 234.25> 160 64<-16 34 113 178 257 336> 408 64<-16 62 141 206 285 336> 620 20G<85.7381 160 229.738 304>
LayerCount: 2
Fore
SplineSet
88 640 m 1
 160 640 l 1
 141 472 l 1
 213 472 l 1
 232 640 l 1
 304 640 l 1
 285 472 l 1
 336 472 l 1
 336 408 l 1
 278 408 l 1
 257 224 l 1
 336 224 l 1
 336 160 l 1
 250 160 l 1
 232 0 l 1
 160 0 l 1
 178 160 l 1
 106 160 l 1
 88 0 l 1
 16 0 l 1
 34 160 l 1
 -16 160 l 1
 -16 224 l 1
 41 224 l 1
 62 408 l 1
 -16 408 l 1
 -16 472 l 1
 69 472 l 1
 88 640 l 1
134 408 m 1
 113 224 l 1
 185 224 l 1
 206 408 l 1
 134 408 l 1
EndSplineSet
Validated: 1
EndChar

StartChar: period
Encoding: 46 46 137
Width: 384
VWidth: 0
Flags: W
HStem: -8 112<107.104 196.896>
VStem: 96 112<3.10403 92.896>
LayerCount: 2
Fore
SplineSet
152 104 m 0
 183 104 208 79 208 48 c 0
 208 17 183 -8 152 -8 c 0
 121 -8 96 17 96 48 c 0
 96 79 121 104 152 104 c 0
EndSplineSet
Validated: 1
EndChar

StartChar: comma
Encoding: 44 44 138
Width: 384
VWidth: 0
Flags: W
HStem: -112 216<135.321 160.338>
VStem: 96 112<4.42136 92.896>
LayerCount: 2
Fore
SplineSet
152 104 m 0
 183 104 208 79 208 48 c 0
 208 -16 176 -72 144 -112 c 1
 96 -112 l 1
 128 -80 132 -29 135 -5 c 1
 112 2 96 23 96 48 c 0
 96 79 121 104 152 104 c 0
EndSplineSet
Validated: 1
EndChar

StartChar: colon
Encoding: 58 58 139
Width: 384
VWidth: 0
Flags: W
HStem: -8 112<107.104 196.896> 240 112<107.104 196.896>
VStem: 96 112<3.10403 92.896 251.104 340.896>
LayerCount: 2
Fore
SplineSet
152 352 m 0
 183 352 208 327 208 296 c 0
 208 265 183 240 152 240 c 0
 121 240 96 265 96 296 c 0
 96 327 121 352 152 352 c 0
152 104 m 0
 183 104 208 79 208 48 c 0
 208 17 183 -8 152 -8 c 0
 121 -8 96 17 96 48 c 0
 96 79 121 104 152 104 c 0
EndSplineSet
Validated: 1
EndChar

StartChar: semicolon
Encoding: 59 59 140
Width: 384
VWidth: 0
Flags: W
HStem: 240 112<107.104 196.896>
VStem: 96 112<4.42136 92.896 251.104 340.896>
LayerCount: 2
Fore
SplineSet
152 352 m 0
 183 352 208 327 208 296 c 0
 208 265 183 240 152 240 c 0
 121 240 96 265 96 296 c 0
 96 327 121 352 152 352 c 0
152 104 m 0
 183 104 208 79 208 48 c 0
 208 -16 176 -72 144 -112 c 1
 96 -112 l 1
 128 -80 132 -29 135 -5 c 1
 112 2 96 23 96 48 c 0
 96 79 121 104 152 104 c 0
EndSplineSet
Validated: 1
EndChar

StartChar: quotesingle
Encoding: 39 39 141
Width: 384
VWidth: 0
Flags: W
LayerCount: 2
Fore
SplineSet
88 648 m 1xc0
 168 648 l 1xc0
 168 536 160 520 160 440 c 1
 96 440 l 1xa0
 96 520 88 536 88 648 c 1xc0
EndSplineSet
Validated: 1
EndChar

StartChar: quotedbl
Encoding: 34 34 142
Width: 384
VWidth: 0
Flags: W
LayerCount: 2
Fore
SplineSet
40 648 m 1xc0
 120 648 l 1xc0
 120 536 112 520 112 440 c 1
 48 440 l 1xa0
 48 520 40 536 40 648 c 1xc0
200 648 m 1x90
 280 648 l 1x90
 280 536 272 520 272 440 c 1
 208 440 l 1x88
 208 520 200 536 200 648 c 1x90
EndSplineSet
Validated: 1
EndChar

StartChar: underscore
Encoding: 95 95 143
Width: 384
VWidth: 0
Flags: W
LayerCount: 2
Fore
SplineSet
-8 -8 m 1
 -8 64 l 1
 328 64 l 1
 328 -8 l 1
 -8 -8 l 1
EndSplineSet
Validated: 1
EndChar

StartChar: parenleft
Encoding: 40 40 144
Width: 384
VWidth: 0
Flags: W
HStem: -0 70<208.138 234.946> 570 70<208.138 234.946>
VStem: 40 88<173.725 466.275>
LayerCount: 2
Fore
SplineSet
233 640 m 1
 252 570 l 1
 190 554 128 494 128 320 c 0
 128 146 190 86 252 70 c 1
 233 -0 l 1
 125 28 40 131 40 320 c 0
 40 509 125 612 233 640 c 1
EndSplineSet
Validated: 1
EndChar

StartChar: parenright
Encoding: 41 41 145
Width: 384
VWidth: 0
Flags: W
HStem: -0 70<85.0544 111.862> 570 70<85.0544 111.862>
VStem: 192 88<173.725 466.275>
LayerCount: 2
Fore
SplineSet
87 640 m 1
 195 612 280 509 280 320 c 0
 280 131 195 28 87 -0 c 1
 68 70 l 1
 130 86 192 146 192 320 c 0
 192 494 130 554 68 570 c 1
 87 640 l 1
EndSplineSet
Validated: 1
EndChar

StartChar: bracketleft
Encoding: 91 91 146
Width: 384
VWidth: 0
Flags: W
LayerCount: 2
Fore
SplineSet
56 648 m 1xe0
 264 648 l 1
 264 576 l 1xe0
 128 576 l 1
 128 64 l 1xd0
 264 64 l 1
 264 -8 l 1
 56 -8 l 1
 56 64 l 1
 56 576 l 1
 56 648 l 1xe0
EndSplineSet
Validated: 1
EndChar

StartChar: bracketright
Encoding: 93 93 147
Width: 384
VWidth: 0
Flags: W
LayerCount: 2
Fore
SplineSet
264 648 m 1xe0
 264 576 l 1
 264 64 l 1
 264 -8 l 1
 56 -8 l 1
 56 64 l 1xe0
 192 64 l 1
 192 576 l 1xd0
 56 576 l 1
 56 648 l 1
 264 648 l 1xe0
EndSplineSet
Validated: 1
EndChar

StartChar: braceleft
Encoding: 123 123 148
Width: 384
VWidth: 0
Flags: W
LayerCount: 2
Fore
SplineSet
264 648 m 1xe0
 264 576 l 1
 192 576 128 576 128 512 c 0xe0
 128 480 144 432 144 392 c 0xd0
 144 352 128 320 64 320 c 1xe0
 128 320 144 288 144 248 c 0xd0
 144 208 128 160 128 128 c 0
 128 64 192 64 264 64 c 1
 264 -8 l 1
 128 -8 64 32 64 128 c 0xe0
 64 160 80 198 80 228 c 0
 80 258 64 280 0 280 c 1
 0 360 l 1
 64 360 80 382 80 412 c 0xd0
 80 442 64 480 64 512 c 0
 64 608 128 648 264 648 c 1xe0
EndSplineSet
Validated: 1
EndChar

StartChar: braceright
Encoding: 125 125 149
Width: 384
VWidth: 0
Flags: W
LayerCount: 2
Fore
SplineSet
48 648 m 1xd0
 184 648 248 608 248 512 c 0xd0
 248 480 232 442 232 412 c 0
 232 382 248 360 312 360 c 1
 312 280 l 1
 248 280 232 258 232 228 c 0xe0
 232 198 248 160 248 128 c 0
 248 32 184 -8 48 -8 c 1
 48 64 l 1
 120 64 184 64 184 128 c 0xd0
 184 160 168 208 168 248 c 0xe0
 168 288 184 320 248 320 c 1xd0
 184 320 168 352 168 392 c 0xe0
 168 432 184 480 184 512 c 0
 184 576 120 576 48 576 c 1
 48 648 l 1xd0
EndSplineSet
Validated: 1
EndChar

StartChar: bar
Encoding: 124 124 150
Width: 384
VWidth: 0
Flags: W
LayerCount: 2
Fore
SplineSet
128 -8 m 1
 128 648 l 1
 192 648 l 1
 192 -8 l 1
 128 -8 l 1
EndSplineSet
Validated: 1
EndChar

StartChar: slash
Encoding: 47 47 151
Width: 384
VWidth: 0
Flags: W
LayerCount: 2
Fore
SplineSet
328 648 m 1
 328 576 64 32 64 -8 c 1
 -8 -8 l 1
 -8 64 264 608 264 648 c 1
 328 648 l 1
EndSplineSet
Validated: 1
EndChar

StartChar: backslash
Encoding: 92 92 152
Width: 384
VWidth: 0
Flags: W
LayerCount: 2
Fore
SplineSet
-8 648 m 1
 56 648 l 1
 56 608 328 64 328 -8 c 1
 256 -8 l 1
 256 32 -8 576 -8 648 c 1
EndSplineSet
Validated: 1
EndChar

StartChar: brokenbar
Encoding: 166 166 153
Width: 384
VWidth: 0
Flags: W
LayerCount: 2
Fore
SplineSet
128 648 m 1
 192 648 l 1
 192 384 l 1
 128 384 l 1
 128 648 l 1
128 256 m 1
 192 256 l 1
 192 -8 l 1
 128 -8 l 1
 128 256 l 1
EndSplineSet
Validated: 1
EndChar

StartChar: plus
Encoding: 43 43 154
Width: 384
VWidth: 0
Flags: W
LayerCount: 2
Fore
SplineSet
120 456 m 1
 200 456 l 1
 200 360 l 1
 296 360 l 1
 296 280 l 1
 200 280 l 1
 200 184 l 1
 120 184 l 1
 120 280 l 1
 24 280 l 1
 24 360 l 1
 120 360 l 1
 120 456 l 1
EndSplineSet
Validated: 1
EndChar

StartChar: hyphen
Encoding: 45 45 155
Width: 384
VWidth: 0
Flags: W
LayerCount: 2
Fore
SplineSet
24 280 m 1
 24 360 l 1
 296 360 l 1
 296 280 l 1
 24 280 l 1
EndSplineSet
Validated: 1
EndChar

StartChar: equal
Encoding: 61 61 156
Width: 384
VWidth: 0
Flags: W
LayerCount: 2
Fore
SplineSet
24 456 m 1
 296 456 l 1
 296 376 l 1
 24 376 l 1
 24 456 l 1
24 264 m 1
 296 264 l 1
 296 184 l 1
 24 184 l 1
 24 264 l 1
EndSplineSet
Validated: 1
EndChar

StartChar: less
Encoding: 60 60 157
Width: 384
VWidth: 0
Flags: W
HStem: 184 64<233.483 328> 288 64<-8 68.5798> 392 64<233.483 328>
VStem: -8 336
CounterMasks: 1 e0
LayerCount: 2
Fore
SplineSet
328 456 m 1
 328 392 l 1
 274 392 175 348 97 320 c 1
 175 292 274 248 328 248 c 1
 328 184 l 1
 224 184 48 288 -8 288 c 1
 -8 352 l 1
 48 352 224 456 328 456 c 1
EndSplineSet
Validated: 1
EndChar

StartChar: greater
Encoding: 62 62 158
Width: 384
VWidth: 0
Flags: W
CounterMasks: 1 e0
LayerCount: 2
Fore
SplineSet
-8 392 m 1
 -8 456 l 1
 96 456 272 352 328 352 c 1
 328 288 l 1
 272 288 96 184 -8 184 c 1
 -8 248 l 1
 46 248 145 292 223 320 c 1
 145 348 46 392 -8 392 c 1
EndSplineSet
Validated: 1
EndChar

StartChar: percent
Encoding: 37 37 159
Width: 384
VWidth: 0
Flags: W
HStem: -8 56<210.438 269.562> 208 56<210.438 269.562> 376 56<50.4376 109.562> 592 56<50.4376 109.562>
VStem: -16 56<438.974 585.026> 120 56<438.974 585.026> 144 56<54.9735 201.026> 280 56<54.9735 201.026>
LayerCount: 2
Fore
SplineSet
80 648 m 0xfd
 128 648 176 584 176 512 c 0
 176 440 128 376 80 376 c 0
 32 376 -16 440 -16 512 c 0
 -16 584 32 648 80 648 c 0xfd
292 613 m 1
 348 581 l 1
 28 27 l 1
 -28 59 l 1
 292 613 l 1
80 592 m 0
 56 592 40 568 40 512 c 0
 40 456 56 432 80 432 c 0
 104 432 120 456 120 512 c 0
 120 568 104 592 80 592 c 0
240 264 m 0
 288 264 336 200 336 128 c 0
 336 56 288 -8 240 -8 c 0
 192 -8 144 56 144 128 c 0xfb
 144 200 192 264 240 264 c 0
240 208 m 0
 216 208 200 184 200 128 c 0
 200 72 216 48 240 48 c 0
 264 48 280 72 280 128 c 0
 280 184 264 208 240 208 c 0
EndSplineSet
Validated: 1
EndChar

StartChar: asterisk
Encoding: 42 42 160
Width: 384
VWidth: 0
Flags: W
HStem: 320 320<128 192>
VStem: 128 64<320 425 535 640>
LayerCount: 2
Fore
SplineSet
128 640 m 1
 192 640 l 1
 192 535 l 1
 283 588 l 1
 315 532 l 1
 224 480 l 1
 315 428 l 1
 283 372 l 1
 192 425 l 1
 192 320 l 1
 128 320 l 1
 128 425 l 1
 37 372 l 1
 5 428 l 1
 96 480 l 1
 5 532 l 1
 37 588 l 1
 128 535 l 1
 128 640 l 1
EndSplineSet
Validated: 1
EndChar

StartChar: currency
Encoding: 164 164 161
Width: 384
VWidth: 0
Flags: W
HStem: 200 64<115.134 204.866> 376 64<115.134 204.866>
VStem: 40 64<275.134 364.866> 216 64<275.134 364.866>
LayerCount: 2
Fore
SplineSet
53 473 m 1
 101 424 l 1
 118 434 138 440 160 440 c 0
 182 440 202 434 219 424 c 1
 267 473 l 1
 313 427 l 1
 264 379 l 1
 274 362 280 342 280 320 c 0
 280 298 274 278 264 261 c 1
 313 213 l 1
 267 167 l 1
 219 216 l 1
 202 206 182 200 160 200 c 0
 138 200 118 206 101 216 c 1
 53 167 l 1
 7 213 l 1
 56 261 l 1
 46 278 40 298 40 320 c 0
 40 342 46 362 56 379 c 1
 7 427 l 1
 53 473 l 1
160 376 m 0
 129 376 104 351 104 320 c 0
 104 289 129 264 160 264 c 0
 191 264 216 289 216 320 c 0
 216 351 191 376 160 376 c 0
EndSplineSet
Validated: 1
EndChar

StartChar: exclamdown
Encoding: 161 161 162
Width: 384
VWidth: 0
Flags: W
HStem: 472 112<115.104 204.896>
VStem: 104 112<483.104 572.896> 112 96<-64 202.369>
LayerCount: 2
Fore
SplineSet
112 -64 m 1xa0
 112 64 112 264 128 392 c 1
 192 392 l 1
 208 264 208 64 208 -64 c 1
 112 -64 l 1xa0
160 472 m 0
 129 472 104 497 104 528 c 0
 104 559 129 584 160 584 c 0
 191 584 216 559 216 528 c 0xc0
 216 497 191 472 160 472 c 0
EndSplineSet
Validated: 1
EndChar

StartChar: questiondown
Encoding: 191 191 163
Width: 384
VWidth: 0
Flags: W
HStem: -72 72<83.7975 234.895> 472 112<115.104 204.896>
VStem: -8 72<20.5526 150.043> 104 112<483.104 572.896> 128 64<235.5 392> 256 72<22.1991 96>
LayerCount: 2
Fore
SplineSet
160 -72 m 0xec
 32 -72 -8 0 -8 96 c 0
 -8 224 128 192 128 288 c 2
 128 392 l 1
 192 392 l 1
 192 288 l 2
 192 160 64 192 64 96 c 0
 64 16 96 0 160 0 c 0
 224 0 256 16 256 96 c 1
 328 96 l 1
 328 1 272 -72 160 -72 c 0xec
160 472 m 0
 129 472 104 497 104 528 c 0
 104 559 129 584 160 584 c 0
 191 584 216 559 216 528 c 0xf4
 216 497 191 472 160 472 c 0
EndSplineSet
Validated: 1
EndChar

StartChar: logicalnot
Encoding: 172 172 164
Width: 384
VWidth: 0
Flags: W
LayerCount: 2
Fore
SplineSet
-8 352 m 1
 256 352 l 1
 328 352 l 1
 328 288 l 1
 328 192 l 1
 256 192 l 1
 256 288 l 1
 -8 288 l 1
 -8 352 l 1
EndSplineSet
Validated: 1
EndChar

StartChar: uni00AD
Encoding: 173 173 165
Width: 384
VWidth: 0
Flags: W
LayerCount: 2
Fore
SplineSet
24 280 m 1
 24 360 l 1
 296 360 l 1
 296 280 l 1
 24 280 l 1
EndSplineSet
Validated: 1
EndChar

StartChar: macron
Encoding: 175 175 166
Width: 384
VWidth: 0
Flags: W
LayerCount: 2
Fore
SplineSet
-8 576 m 1
 -8 648 l 1
 328 648 l 1
 328 576 l 1
 -8 576 l 1
EndSplineSet
Validated: 1
EndChar

StartChar: plusminus
Encoding: 177 177 167
Width: 384
VWidth: 0
Flags: W
LayerCount: 2
Fore
SplineSet
120 456 m 1
 200 456 l 1
 200 360 l 1
 296 360 l 1
 296 280 l 1
 200 280 l 1
 200 184 l 1
 120 184 l 1
 120 280 l 1
 24 280 l 1
 24 360 l 1
 120 360 l 1
 120 456 l 1
24 72 m 1
 296 72 l 1
 296 -8 l 1
 24 -8 l 1
 24 72 l 1
EndSplineSet
Validated: 1
EndChar

StartChar: ellipsis
Encoding: 256 8230 168
Width: 384
VWidth: 0
Flags: W
HStem: 0 96<-8.55973 72.5597 119.44 200.56 247.44 328.56>
VStem: -16 96<7.44027 88.5597> 112 96<7.44027 88.5597> 240 96<7.44027 88.5597>
CounterMasks: 1 70
LayerCount: 2
Fore
SplineSet
160 96 m 0
 187 96 208 75 208 48 c 0
 208 21 187 0 160 0 c 0
 133 0 112 21 112 48 c 0
 112 75 133 96 160 96 c 0
32 96 m 0
 59 96 80 75 80 48 c 0
 80 21 59 0 32 0 c 0
 5 0 -16 21 -16 48 c 0
 -16 75 5 96 32 96 c 0
288 96 m 0
 315 96 336 75 336 48 c 0
 336 21 315 0 288 0 c 0
 261 0 240 21 240 48 c 0
 240 75 261 96 288 96 c 0
EndSplineSet
Validated: 1
EndChar

StartChar: Ydieresis
Encoding: 257 376 169
Width: 384
VWidth: 0
Flags: W
HStem: 0 21G<128 192> 620 20G<0 64 256 320> 688 96<39.4403 120.56 199.44 280.56>
VStem: 0 64<483.823 640> 32 96<695.44 776.56> 128 64<0 296.695> 192 96<695.44 776.56> 256 64<483.823 640>
LayerCount: 2
Fore
SplineSet
80 784 m 0xe8
 107 784 128 763 128 736 c 0
 128 709 107 688 80 688 c 0
 53 688 32 709 32 736 c 0
 32 763 53 784 80 784 c 0xe8
240 784 m 0
 267 784 288 763 288 736 c 0
 288 709 267 688 240 688 c 0
 213 688 192 709 192 736 c 0xe2
 192 763 213 784 240 784 c 0
0 640 m 1xf5
 64 640 l 1
 64 576 l 2
 64 503 119 412 160 330 c 1
 201 412 256 503 256 576 c 2
 256 640 l 1
 320 640 l 1
 320 576 l 2
 320 480 224 320 192 256 c 1
 192 0 l 1
 128 0 l 1
 128 256 l 1
 96 320 0 480 0 576 c 2
 0 640 l 1xf5
EndSplineSet
Validated: 1
EndChar

StartChar: Euro
Encoding: 258 8364 171
Width: 384
VWidth: 0
Flags: W
HStem: -8 72<140.152 217.568> 216 64<-24 25 101 200> 360 64<-24 25 101 200> 576 72<140.152 217.568>
VStem: -24 224<216 280 360 424> 24 72<133.712 216 280 360 424 506.288> 245 67<94.3988 128.926 511.074 545.601>
LayerCount: 2
Fore
SplineSet
176 648 m 0xfa
 226 648 288 621 312 513 c 1
 245 495 l 1
 235 547 202 576 176 576 c 0
 140 576 112 521 101 424 c 1
 200 424 l 1
 200 360 l 1xfa
 97 360 l 1
 96 347 96 334 96 320 c 0xf6
 96 306 96 293 97 280 c 1
 200 280 l 1
 200 216 l 1
 101 216 l 1
 112 119 140 64 176 64 c 0
 202 64 235 93 245 145 c 1
 312 127 l 1
 288 19 226 -8 176 -8 c 0
 114 -8 47 33 29 216 c 1
 -24 216 l 1
 -24 280 l 1xfa
 25 280 l 1
 24 293 24 306 24 320 c 0xf6
 24 334 24 347 25 360 c 1
 -24 360 l 1
 -24 424 l 1
 29 424 l 1
 47 607 114 648 176 648 c 0xfa
EndSplineSet
Validated: 1
EndChar

StartChar: thorn
Encoding: 254 254 172
Width: 384
VWidth: 0
Flags: W
HStem: -8 72<94.1163 223.866> 384 72<92.3155 223.866> 620 20G<0 64>
VStem: 0 64<-192 32 94.7727 355.922 416 640> 256 72<95.7157 352.284>
LayerCount: 2
Fore
SplineSet
160 456 m 0
 256 456 328 416 328 224 c 0
 328 32 256 -8 160 -8 c 0
 120 -8 96 0 64 32 c 1
 64 -192 l 1
 0 -192 l 1
 0 21 0 427 0 640 c 1
 64 640 l 1
 64 416 l 1
 88 448 128 456 160 456 c 0
160 384 m 0
 80 384 64 336 64 256 c 2
 64 192 l 2
 64 120 80 64 160 64 c 0
 256 64 256 144 256 224 c 0
 256 304 256 384 160 384 c 0
EndSplineSet
Validated: 1
EndChar

StartChar: divide
Encoding: 247 247 173
Width: 384
VWidth: 0
Flags: W
HStem: 120 112<115.104 204.896> 280 80<24 296> 408 112<115.104 204.896>
VStem: 104 112<131.104 220.896 419.104 508.896>
CounterMasks: 1 e0
LayerCount: 2
Fore
SplineSet
160 520 m 0
 191 520 216 495 216 464 c 0
 216 433 191 408 160 408 c 0
 129 408 104 433 104 464 c 0
 104 495 129 520 160 520 c 0
24 360 m 1
 296 360 l 1
 296 280 l 1
 24 280 l 1
 24 360 l 1
160 232 m 0
 191 232 216 207 216 176 c 0
 216 145 191 120 160 120 c 0
 129 120 104 145 104 176 c 0
 104 207 129 232 160 232 c 0
EndSplineSet
Validated: 1
EndChar

StartChar: eth
Encoding: 240 240 174
Width: 384
VWidth: 0
Flags: W
HStem: -8 72<100.891 218.283> 352 72<100.891 219.61> 463 62<57.1502 159.403> 628 20G<64 167.5>
VStem: -8 72<106.31 309.69> 256 72<107.895 310.562>
LayerCount: 2
Fore
SplineSet
160 352 m 0
 80 352 64 272 64 208 c 0
 64 144 80 64 160 64 c 0
 239 64 256 142 256 205 c 0
 256 214 256 224 255 234 c 0
 251 291 230 352 160 352 c 0
64 648 m 1
 152 648 l 1
 183 627 213 602 238 569 c 1
 278 581 314 595 352 608 c 1
 369 546 l 1
 338 531 307 519 275 508 c 1
 306 442 326 351 328 219 c 0
 328 215 328 212 328 208 c 0
 328 207 328 206 328 204 c 0
 328 203 328 201 328 200 c 0
 326 91 285 -8 160 -8 c 0
 32 -8 -8 96 -8 208 c 0
 -8 320 32 424 160 424 c 0
 184 424 204 420 222 414 c 1
 215 438 206 462 195 486 c 1
 152 476 107 468 59 463 c 1
 43 525 l 1
 89 532 127 539 161 547 c 1
 135 587 103 622 64 648 c 1
EndSplineSet
Validated: 1
EndChar

StartChar: multiply
Encoding: 215 215 175
Width: 384
VWidth: 0
Flags: W
HStem: 196 248
VStem: 36 248
LayerCount: 2
Fore
SplineSet
228 444 m 1
 284 388 l 1
 217 320 l 1
 284 252 l 1
 228 196 l 1
 160 263 l 1
 92 196 l 1
 36 252 l 1
 103 320 l 1
 36 388 l 1
 92 444 l 1
 160 377 l 1
 228 444 l 1
EndSplineSet
Validated: 1
EndChar

StartChar: Thorn
Encoding: 222 222 176
Width: 384
VWidth: 0
Flags: W
HStem: 0 21G<0 64> 190 66<64 224.392> 448 64<64 227.043> 620 20G<0 64>
VStem: 0 64<0 192 256 448 512 640> 264 64<290.54 415.032>
LayerCount: 2
Fore
SplineSet
0 640 m 1
 64 640 l 1
 64 512 l 1
 128 512 l 2
 200 512 328 496 328 352 c 0
 328 292 314 190 110 190 c 0
 95 190 80 191 64 192 c 1
 64 0 l 1
 0 0 l 1
 0 512 l 1
 0 640 l 1
100 448 m 0
 88 448 76 448 64 448 c 1
 64 256 l 1
 77 256 90 256 103 256 c 0
 186 256 264 262 264 352 c 0
 264 443 184 448 100 448 c 0
EndSplineSet
Validated: 1
EndChar

StartChar: germandbls
Encoding: 223 223 177
Width: 384
VWidth: 0
Flags: W
LayerCount: 2
Fore
SplineSet
160 640 m 0xf8
 264 640 296 552 296 496 c 0xf8
 296 352 200 384 200 336 c 0
 200 304 328 264 328 160 c 0
 328 64 288 0 128 0 c 1
 128 64 l 1
 224 64 256 96 256 160 c 0xf4
 256 232 128 264 128 336 c 0
 128 448 224 384 224 496 c 0
 224 512 224 576 160 576 c 0
 96 576 64 528 64 448 c 2
 64 0 l 1
 0 0 l 1
 0 448 l 2
 0 544 32 640 160 640 c 0xf8
EndSplineSet
Validated: 1
EndChar

StartChar: ae
Encoding: 230 230 178
Width: 384
VWidth: 0
Flags: W
HStem: -8 72<70.4194 121.314 196.13 273.567> 184 72<192.046 252.774> 192 72<67.2258 127.954> 384 72<46.4332 123.87 198.686 249.581>
VStem: -8 72<66.1823 190.125> 128 64<66.2358 183.657 264.343 381.764> 256 72<257.875 381.818>
CounterMasks: 1 0e
LayerCount: 2
Fore
SplineSet
96 456 m 0xbe
 127 456 148 449 162 435 c 1
 177 449 198 456 224 456 c 0
 288 456 328 416 328 320 c 0
 328 200 264 184 224 184 c 2
 192 184 l 1xde
 192 178 192 171 192 166 c 0
 192 78 194 64 224 64 c 0
 242 64 249 69 253 90 c 1
 317 53 l 1
 304 10 278 -8 224 -8 c 0
 193 -8 172 -1 158 13 c 1
 143 -1 122 -8 96 -8 c 0
 32 -8 -8 32 -8 128 c 0
 -8 248 56 264 96 264 c 2
 128 264 l 1
 128 270 128 277 128 282 c 0
 128 370 126 384 96 384 c 0
 78 384 71 379 67 358 c 1
 3 395 l 1
 16 438 42 456 96 456 c 0xbe
224 384 m 0
 208 384 192 368 192 320 c 2
 192 296 l 1
 192 280 l 2
 192 256 208 256 224 256 c 0
 248 256 256 264 256 320 c 0
 256 368 240 384 224 384 c 0
96 192 m 0xbe
 72 192 64 184 64 128 c 0
 64 80 80 64 96 64 c 0
 112 64 128 80 128 128 c 2
 128 152 l 1
 128 168 l 2
 128 192 112 192 96 192 c 0xbe
EndSplineSet
Validated: 1
EndChar

StartChar: Eth
Encoding: 208 208 179
Width: 384
VWidth: 0
Flags: W
CounterMasks: 1 e0
LayerCount: 2
Fore
SplineSet
64 640 m 1
 128 640 l 2
 256 640 328 608 328 320 c 0
 328 32 256 0 128 0 c 2
 64 0 l 1
 64 288 l 1
 0 288 l 1
 0 352 l 1
 64 352 l 1
 64 640 l 1
128 576 m 1
 128 352 l 1
 192 352 l 1
 192 288 l 1
 128 288 l 1
 128 64 l 1
 224 64 256 96 256 320 c 0
 256 544 224 576 128 576 c 1
EndSplineSet
Validated: 1
EndChar

StartChar: AE
Encoding: 198 198 180
Width: 384
VWidth: 0
Flags: W
HStem: 0 64<192 320> 192 64<45 128> 320 64<192 320> 576 64<192 320>
VStem: -32 64<0 180.815> 128 192<0 64 320 384> 128 64<64 192 256 320 384 544>
LayerCount: 2
Fore
SplineSet
128 640 m 2xfa
 192 640 l 1xfa
 320 640 l 1
 320 576 l 1xfc
 192 576 l 1
 192 384 l 1xfa
 320 384 l 1
 320 320 l 1xfc
 192 320 l 1
 192 64 l 1xfa
 320 64 l 1
 320 0 l 1xfc
 192 0 l 1xfa
 128 0 l 1xfc
 128 192 l 1
 39 192 l 1
 35 136 32 72 32 0 c 1
 -32 0 l 1
 -32 416 64 640 128 640 c 2xfa
128 544 m 1
 116 544 68 466 45 256 c 1
 128 256 l 1xfa
 128 320 l 1
 128 384 l 1xfc
 128 544 l 1
EndSplineSet
Validated: 1
EndChar

StartChar: guillemotright
Encoding: 187 187 181
Width: 384
VWidth: 0
Flags: W
HStem: 184 272
LayerCount: 2
Fore
SplineSet
192 456 m 1
 283 365 l 1
 328 320 l 1
 283 275 l 1
 192 184 l 1
 147 230 l 1
 237 320 l 1
 147 410 l 1
 192 456 l 1
32 456 m 1
 123 365 l 1
 168 320 l 1
 123 275 l 1
 32 184 l 1
 -13 230 l 1
 77 320 l 1
 -13 410 l 1
 32 456 l 1
EndSplineSet
Validated: 1
EndChar

StartChar: uni00B9
Encoding: 185 185 182
Width: 384
VWidth: 0
Flags: W
HStem: 256 64<64 128 192 256> 620 20G<116.468 192>
VStem: 128 64<320 512>
LayerCount: 2
Fore
SplineSet
128 640 m 1
 192 640 l 1
 192 320 l 1
 256 320 l 1
 256 256 l 1
 64 256 l 1
 64 320 l 1
 128 320 l 1
 128 512 l 1
 119 497 l 1
 64 529 l 1
 128 640 l 1
EndSplineSet
Validated: 1
EndChar

StartChar: periodcentered
Encoding: 183 183 183
Width: 384
VWidth: 0
Flags: W
HStem: 264 112<115.104 204.896>
VStem: 104 112<275.104 364.896>
LayerCount: 2
Fore
SplineSet
216 320 m 0
 216 289 191 264 160 264 c 0
 129 264 104 289 104 320 c 0
 104 351 129 376 160 376 c 0
 191 376 216 351 216 320 c 0
EndSplineSet
Validated: 1
EndChar

StartChar: paragraph
Encoding: 182 182 184
Width: 384
VWidth: 0
Flags: W
LayerCount: 2
Fore
SplineSet
128 640 m 2xd8
 256 640 l 1
 320 640 l 1
 384 640 l 1
 384 576 l 1
 320 576 l 1
 320 0 l 1
 256 0 l 1
 256 576 l 1
 192 576 l 1
 192 0 l 1
 128 0 l 1
 128 256 l 1xd8
 40 256 -8 320 -8 448 c 0xe8
 -8 576 40 640 128 640 c 2xd8
EndSplineSet
Validated: 1
EndChar

StartChar: uni00B5
Encoding: 181 181 185
Width: 384
VWidth: 0
Flags: W
HStem: -8 72<105.272 213.688> 0 21G<256 320>
VStem: 0 64<-200 22 110.66 320> 256 64<0 35 112.908 320>
LayerCount: 2
Fore
SplineSet
0 320 m 1xb0
 64 320 l 1
 64 224 l 2
 64 128 96 64 160 64 c 0xb0
 240 64 256 165 256 224 c 2
 256 320 l 1
 320 320 l 1
 320 224 l 1
 320 0 l 1
 256 0 l 1x70
 256 35 l 1
 230 8 198 -8 160 -8 c 0
 126 -8 92 -1 64 22 c 1
 64 -200 l 1
 0 -200 l 1
 0 224 l 1
 0 320 l 1xb0
EndSplineSet
Validated: 1
EndChar

StartChar: copyright
Encoding: 169 169 186
Width: 384
VWidth: 0
Flags: W
HStem: 176 72<109.264 258.736> 304 56<168.711 214.22> 472 56<168.711 214.22> 584 72<109.264 258.736>
VStem: -16 72<305.391 526.609> 112 56<361.422 470.578> 312 72<305.391 526.609>
LayerCount: 2
Fore
SplineSet
184 656 m 0
 277 656 384 608 384 448 c 2
 384 384 l 2
 384 224 277 176 184 176 c 0
 91 176 -16 224 -16 384 c 2
 -16 448 l 2
 -16 608 91 656 184 656 c 0
184 584 m 0
 112 584 56 536 56 448 c 2
 56 384 l 2
 56 296 112 248 184 248 c 0
 256 248 312 296 312 384 c 2
 312 448 l 2
 312 536 256 584 184 584 c 0
184 528 m 0
 208 528 230 516 243 497 c 1
 193 469 l 1
 191 471 188 472 184 472 c 0
 175 472 168 465 168 456 c 2
 168 376 l 2
 168 367 175 360 184 360 c 0
 188 360 191 361 193 363 c 1
 243 335 l 1
 230 316 208 304 184 304 c 0
 144 304 112 336 112 376 c 2
 112 456 l 2
 112 496 144 528 184 528 c 0
EndSplineSet
Validated: 1
EndChar

StartChar: guillemotleft
Encoding: 171 171 187
Width: 384
VWidth: 0
Flags: W
HStem: 184 272
LayerCount: 2
Fore
SplineSet
128 456 m 1
 173 410 l 1
 83 320 l 1
 173 230 l 1
 128 184 l 1
 37 275 l 1
 -8 320 l 1
 37 365 l 1
 128 456 l 1
288 456 m 1
 333 410 l 1
 243 320 l 1
 333 230 l 1
 288 184 l 1
 197 275 l 1
 152 320 l 1
 197 365 l 1
 288 456 l 1
EndSplineSet
Validated: 1
EndChar

StartChar: registered
Encoding: 174 174 188
Width: 384
VWidth: 0
Flags: W
HStem: 176 72<109.264 258.736> 384 56<168 198.277> 472 56<168 198.578> 584 72<109.264 258.736>
VStem: -16 72<305.391 526.609> 112 56<304 384 440 472> 200 56<440.159 471.289> 208 56<304 377.775> 312 72<305.391 526.609>
LayerCount: 2
Fore
SplineSet
184 656 m 0xfc80
 277 656 384 608 384 448 c 2
 384 384 l 2
 384 224 277 176 184 176 c 0
 91 176 -16 224 -16 384 c 2
 -16 448 l 2
 -16 608 91 656 184 656 c 0xfc80
184 584 m 0
 112 584 56 536 56 448 c 2
 56 384 l 2
 56 296 112 248 184 248 c 0
 256 248 312 296 312 384 c 2
 312 448 l 2
 312 536 256 584 184 584 c 0
112 528 m 1
 168 528 l 1
 184 528 l 2
 224 528 256 496 256 456 c 0xfe80
 256 437 248 419 236 407 c 1
 255 392 264 353 264 304 c 1
 208 304 l 1xfd80
 208 360 192 384 168 384 c 1
 168 304 l 1
 112 304 l 1
 112 528 l 1
168 472 m 1
 168 440 l 1
 184 440 l 2
 193 440 200 447 200 456 c 0
 200 465 193 472 184 472 c 2
 168 472 l 1
EndSplineSet
Validated: 1
EndChar

StartChar: uni2070
Encoding: 259 8304 189
Width: 384
VWidth: 0
Flags: W
LayerCount: 2
Fore
SplineSet
160 648 m 0
 224 648 264 608 264 448 c 0
 264 288 224 248 160 248 c 0
 96 248 56 288 56 448 c 0
 56 608 96 648 160 648 c 0
160 584 m 0
 128 584 120 552 120 448 c 0
 120 344 128 312 160 312 c 0
 192 312 200 344 200 448 c 0
 200 552 192 584 160 584 c 0
EndSplineSet
Validated: 1
EndChar

StartChar: uni2074
Encoding: 260 8308 190
Width: 384
VWidth: 0
Flags: W
HStem: 384 64<141 192 256 296> 620 20G<178.667 256>
VStem: 192 64<256 384 448 525>
LayerCount: 2
Fore
SplineSet
192 640 m 1
 256 640 l 1
 256 448 l 1
 296 448 l 1
 296 384 l 1
 256 384 l 1
 256 256 l 1
 192 256 l 1
 192 384 l 1
 64 384 l 1
 64 448 l 1
 192 640 l 1
192 525 m 1
 141 448 l 1
 192 448 l 1
 192 525 l 1
EndSplineSet
Validated: 1
EndChar

StartChar: uni2075
Encoding: 261 8309 191
Width: 384
VWidth: 0
Flags: W
HStem: 248 72<127.349 185.524> 448 64<128 184.282> 576 64<128 256>
VStem: 64 64<512 576> 192 72<323.096 445.323>
LayerCount: 2
Fore
SplineSet
64 640 m 1
 256 640 l 1
 256 576 l 1
 128 576 l 1
 128 512 l 1
 160 512 l 2
 240 512 264 448 264 384 c 0
 264 320 240 248 160 248 c 0
 105 248 76 282 64 325 c 1
 133 343 l 1
 137 331 145 320 160 320 c 0
 192 320 192 368 192 384 c 0
 192 400 192 448 160 448 c 2
 128 448 l 1
 64 448 l 1
 64 512 l 1
 64 576 l 1
 64 624 l 1
 64 640 l 1
EndSplineSet
Validated: 1
EndChar

StartChar: uni2076
Encoding: 262 8310 192
Width: 384
VWidth: 0
Flags: W
HStem: 248 64<128.803 191.534> 456 64<127.539 191.534> 584 64<123.107 215.084>
VStem: 56 64<318.031 451.657 516 580.067> 200 64<317.698 450.302 570.262 581.588>
LayerCount: 2
Fore
SplineSet
160 312 m 0
 192 312 200 344 200 384 c 0
 200 424 192 456 160 456 c 0
 128 456 120 424 120 384 c 0
 120 344 128 312 160 312 c 0
160 248 m 0
 82 248 57 286 56 376 c 1
 56 512 l 2
 56 608 80 648 160 648 c 0
 221 648 249 625 259 572 c 1
 198 556 l 1
 196 577 187 584 160 584 c 0
 121 584 120 569 120 516 c 1
 131 519 145 520 160 520 c 0
 240 520 264 480 264 384 c 0
 264 288 240 248 160 248 c 0
EndSplineSet
Validated: 1
EndChar

StartChar: uni2077
Encoding: 263 8311 193
Width: 384
VWidth: 0
Flags: W
HStem: 576 64<64 191>
VStem: 128 65<288 320.768>
LayerCount: 2
Fore
SplineSet
64 640 m 1
 256 640 l 1
 256 576 l 1
 193 288 l 1
 128 288 l 1
 191 576 l 1
 64 576 l 1
 64 640 l 1
EndSplineSet
Validated: 1
EndChar

StartChar: uni2078
Encoding: 264 8312 194
Width: 384
VWidth: 0
Flags: W
HStem: 248 72<132.351 187.649> 448 64<133.022 186.978> 576 72<130.833 189.167>
VStem: 56 72<322.07 446.478 514.304 573.167> 192 72<322.07 446.478 514.304 573.167>
LayerCount: 2
Fore
SplineSet
160 648 m 0
 224 648 264 608 264 544 c 0
 264 510 257 485 238 469 c 1
 255 445 264 432 264 384 c 0
 264 304 240 248 160 248 c 0
 80 248 56 304 56 384 c 0
 56 432 65 445 82 469 c 1
 63 485 56 510 56 544 c 0
 56 608 96 648 160 648 c 0
160 576 m 0
 144 576 128 560 128 544 c 0
 128 528 144 512 160 512 c 0
 176 512 192 528 192 544 c 0
 192 560 176 576 160 576 c 0
160 448 m 0
 144 448 128 440 128 384 c 0
 128 336 136 320 160 320 c 0
 184 320 192 336 192 384 c 0
 192 440 176 448 160 448 c 0
EndSplineSet
Validated: 1
EndChar

StartChar: uni2079
Encoding: 265 8313 195
Width: 384
VWidth: 0
Flags: W
HStem: 248 64<104.916 196.893> 376 64<128.466 192.461> 584 64<128.466 191.197>
VStem: 56 64<314.412 325.738 445.698 578.302> 200 64<315.933 380 444.343 577.969>
LayerCount: 2
Fore
SplineSet
160 584 m 0
 128 584 120 552 120 512 c 0
 120 472 128 440 160 440 c 0
 192 440 200 472 200 512 c 0
 200 552 192 584 160 584 c 0
160 648 m 0
 238 648 263 610 264 520 c 1
 264 384 l 2
 264 288 240 248 160 248 c 0
 99 248 71 271 61 324 c 1
 122 340 l 1
 124 319 133 312 160 312 c 0
 199 312 200 327 200 380 c 1
 189 377 175 376 160 376 c 0
 80 376 56 416 56 512 c 0
 56 608 80 648 160 648 c 0
EndSplineSet
Validated: 1
EndChar

StartChar: uni2080
Encoding: 266 8320 196
Width: 384
VWidth: 0
Flags: W
LayerCount: 2
Fore
SplineSet
160 392 m 0
 224 392 264 352 264 192 c 0
 264 32 224 -8 160 -8 c 0
 96 -8 56 32 56 192 c 0
 56 352 96 392 160 392 c 0
160 328 m 0
 128 328 120 296 120 192 c 0
 120 88 128 56 160 56 c 0
 192 56 200 88 200 192 c 0
 200 296 192 328 160 328 c 0
EndSplineSet
Validated: 1
EndChar

StartChar: uni2081
Encoding: 267 8321 197
Width: 384
VWidth: 0
Flags: W
HStem: -8 64<64 128 192 256>
VStem: 128 64<56 248>
LayerCount: 2
Fore
SplineSet
128 376 m 1
 192 376 l 1
 192 56 l 1
 256 56 l 1
 256 -8 l 1
 64 -8 l 1
 64 56 l 1
 128 56 l 1
 128 248 l 1
 119 233 l 1
 64 265 l 1
 128 376 l 1
EndSplineSet
Validated: 1
EndChar

StartChar: uni2082
Encoding: 268 8322 198
Width: 384
VWidth: 0
Flags: W
LayerCount: 2
Fore
SplineSet
160 392 m 0xe8
 224 392 264 352 264 256 c 0
 264 128 136 192 136 64 c 1
 256 64 l 1
 256 0 l 1
 64 0 l 1
 64 64 l 2xd8
 64 224 192 184 192 256 c 0
 192 304 176 320 160 320 c 0
 144 320 128 304 128 256 c 1
 56 256 l 1
 56 352 96 392 160 392 c 0xe8
EndSplineSet
Validated: 1
EndChar

StartChar: uni2083
Encoding: 269 8323 199
Width: 384
VWidth: 0
Flags: W
HStem: -8 72<124.945 187.649> 192 64<136 186.978> 320 72<124.444 189.167>
VStem: 192 72<66.0701 190.478 258.304 317.167>
LayerCount: 2
Fore
SplineSet
160 392 m 0
 224 392 264 352 264 288 c 0
 264 254 257 229 238 213 c 1
 255 189 264 176 264 128 c 0
 264 48 240 -8 160 -8 c 0
 102 -8 73 22 62 69 c 1
 132 87 l 1
 136 70 145 64 160 64 c 0
 184 64 192 80 192 128 c 0
 192 184 176 192 160 192 c 2
 136 192 l 1
 136 256 l 1
 160 256 l 2
 176 256 192 272 192 288 c 0
 192 304 176 320 160 320 c 0
 147 320 134 310 130 297 c 1
 59 316 l 1
 69 364 106 392 160 392 c 0
EndSplineSet
Validated: 1
EndChar

StartChar: uni2084
Encoding: 270 8324 200
Width: 384
VWidth: 0
Flags: W
HStem: 0 21G<192 256> 128 64<141 192 256 296>
VStem: 192 64<0 128 192 269>
LayerCount: 2
Fore
SplineSet
192 384 m 1
 256 384 l 1
 256 192 l 1
 296 192 l 1
 296 128 l 1
 256 128 l 1
 256 0 l 1
 192 0 l 1
 192 128 l 1
 64 128 l 1
 64 192 l 1
 192 384 l 1
192 269 m 1
 141 192 l 1
 192 192 l 1
 192 269 l 1
EndSplineSet
Validated: 1
EndChar

StartChar: uni2085
Encoding: 271 8325 201
Width: 384
VWidth: 0
Flags: W
HStem: -8 72<127.349 185.524> 192 64<128 184.282> 320 64<128 256>
VStem: 64 64<256 320> 192 72<67.0957 189.323>
LayerCount: 2
Fore
SplineSet
64 384 m 1
 256 384 l 1
 256 320 l 1
 128 320 l 1
 128 256 l 1
 160 256 l 2
 240 256 264 192 264 128 c 0
 264 64 240 -8 160 -8 c 0
 105 -8 76 26 64 69 c 1
 133 87 l 1
 137 75 145 64 160 64 c 0
 192 64 192 112 192 128 c 0
 192 144 192 192 160 192 c 2
 128 192 l 1
 64 192 l 1
 64 256 l 1
 64 320 l 1
 64 368 l 1
 64 384 l 1
EndSplineSet
Validated: 1
EndChar

StartChar: uni2086
Encoding: 272 8326 202
Width: 384
VWidth: 0
Flags: W
HStem: -8 64<128.803 191.534> 200 64<127.539 191.534> 328 64<123.107 215.084>
VStem: 56 64<62.0312 195.657 260 324.067> 200 64<61.6981 194.302 314.262 325.588>
LayerCount: 2
Fore
SplineSet
160 56 m 0
 192 56 200 88 200 128 c 0
 200 168 192 200 160 200 c 0
 128 200 120 168 120 128 c 0
 120 88 128 56 160 56 c 0
160 -8 m 0
 82 -8 57 30 56 120 c 1
 56 256 l 2
 56 352 80 392 160 392 c 0
 221 392 249 369 259 316 c 1
 198 300 l 1
 196 321 187 328 160 328 c 0
 121 328 120 313 120 260 c 1
 131 263 145 264 160 264 c 0
 240 264 264 224 264 128 c 0
 264 32 240 -8 160 -8 c 0
EndSplineSet
Validated: 1
EndChar

StartChar: uni2087
Encoding: 273 8327 203
Width: 384
VWidth: 0
Flags: W
HStem: 0 21G<128 197.375> 288 64<64 191>
VStem: 128 65<0 32.768>
LayerCount: 2
Fore
SplineSet
64 352 m 1
 256 352 l 1
 256 288 l 1
 193 0 l 1
 128 0 l 1
 191 288 l 1
 64 288 l 1
 64 352 l 1
EndSplineSet
Validated: 1
EndChar

StartChar: uni2088
Encoding: 274 8328 204
Width: 384
VWidth: 0
Flags: W
HStem: -8 72<132.351 187.649> 192 64<133.022 186.978> 320 72<130.833 189.167>
VStem: 56 72<66.0701 190.478 258.304 317.167> 192 72<66.0701 190.478 258.304 317.167>
LayerCount: 2
Fore
SplineSet
160 392 m 0
 224 392 264 352 264 288 c 0
 264 254 257 229 238 213 c 1
 255 189 264 176 264 128 c 0
 264 48 240 -8 160 -8 c 0
 80 -8 56 48 56 128 c 0
 56 176 65 189 82 213 c 1
 63 229 56 254 56 288 c 0
 56 352 96 392 160 392 c 0
160 320 m 0
 144 320 128 304 128 288 c 0
 128 272 144 256 160 256 c 0
 176 256 192 272 192 288 c 0
 192 304 176 320 160 320 c 0
160 192 m 0
 144 192 128 184 128 128 c 0
 128 80 136 64 160 64 c 0
 184 64 192 80 192 128 c 0
 192 184 176 192 160 192 c 0
EndSplineSet
Validated: 1
EndChar

StartChar: uni2089
Encoding: 275 8329 205
Width: 384
VWidth: 0
Flags: W
HStem: -8 64<104.916 196.893> 120 64<128.466 192.461> 328 64<128.466 191.197>
VStem: 56 64<58.4124 69.7377 189.698 322.302> 200 64<59.9331 124 188.343 321.969>
LayerCount: 2
Fore
SplineSet
160 328 m 0
 128 328 120 296 120 256 c 0
 120 216 128 184 160 184 c 0
 192 184 200 216 200 256 c 0
 200 296 192 328 160 328 c 0
160 392 m 0
 238 392 263 354 264 264 c 1
 264 128 l 2
 264 32 240 -8 160 -8 c 0
 99 -8 71 15 61 68 c 1
 122 84 l 1
 124 63 133 56 160 56 c 0
 199 56 200 71 200 124 c 1
 189 121 175 120 160 120 c 0
 80 120 56 160 56 256 c 0
 56 352 80 392 160 392 c 0
EndSplineSet
Validated: 1
EndChar

StartChar: uni00B2
Encoding: 178 178 206
Width: 384
VWidth: 0
Flags: W
LayerCount: 2
Fore
SplineSet
160 648 m 0xe8
 224 648 264 608 264 512 c 0
 264 384 136 448 136 320 c 1
 256 320 l 1
 256 256 l 1
 64 256 l 1
 64 320 l 2xd8
 64 480 192 440 192 512 c 0
 192 560 176 576 160 576 c 0
 144 576 128 560 128 512 c 1
 56 512 l 1
 56 608 96 648 160 648 c 0xe8
EndSplineSet
Validated: 1
EndChar

StartChar: uni00B3
Encoding: 179 179 207
Width: 384
VWidth: 0
Flags: W
HStem: 248 72<124.945 187.649> 448 64<136 186.978> 576 72<124.444 189.167>
VStem: 192 72<322.07 446.478 514.304 573.167>
LayerCount: 2
Fore
SplineSet
160 648 m 0
 224 648 264 608 264 544 c 0
 264 510 257 485 238 469 c 1
 255 445 264 432 264 384 c 0
 264 304 240 248 160 248 c 0
 102 248 73 278 62 325 c 1
 132 343 l 1
 136 326 145 320 160 320 c 0
 184 320 192 336 192 384 c 0
 192 440 176 448 160 448 c 2
 136 448 l 1
 136 512 l 1
 160 512 l 2
 176 512 192 528 192 544 c 0
 192 560 176 576 160 576 c 0
 147 576 134 566 130 553 c 1
 59 572 l 1
 69 620 106 648 160 648 c 0
EndSplineSet
Validated: 1
EndChar
